<svg width="65" height="68" viewBox="0 0 65 68" fill="none" xmlns="http://www.w3.org/2000/svg">
<path d="M51.3382 14.9416C47.8071 13.252 44.0569 12.0207 40.1425 11.3334C39.6498 12.2211 39.1023 13.4238 38.719 14.3689C34.5556 13.7388 30.4222 13.7388 26.3162 14.3689C25.9329 13.4238 25.358 12.2211 24.8927 11.3334C20.951 12.0207 17.2008 13.252 13.6943 14.9416C6.60461 25.8808 4.68846 36.5623 5.64653 47.1006C10.3547 50.6802 14.8988 52.8567 19.3634 54.2886C20.4583 52.7421 21.4438 51.0811 22.2923 49.3344C20.6773 48.7043 19.1444 47.9311 17.6662 47.0147C18.0495 46.7285 18.4327 46.4134 18.7886 46.0984C27.7123 50.3653 37.3778 50.3653 46.192 46.0984C46.5752 46.4134 46.9311 46.7285 47.3143 47.0147C45.8361 47.9311 44.3033 48.7043 42.6882 49.3344C43.5368 51.0811 44.5223 52.7421 45.6171 54.2886C50.079 52.8567 54.6504 50.6802 59.3339 47.1006C60.5109 34.9015 57.4698 24.3059 51.3382 14.9416ZM23.5241 40.6001C20.8415 40.6001 18.6516 38.0515 18.6516 34.9301C18.6516 31.8087 20.7867 29.2599 23.5241 29.2599C26.234 29.2599 28.4512 31.8087 28.3965 34.9301C28.3965 38.0515 26.234 40.6001 23.5241 40.6001ZM41.5112 40.6001C38.8285 40.6001 36.6359 38.0515 36.6359 34.9301C36.6359 31.8087 38.7738 29.2599 41.5112 29.2599C44.2212 29.2599 46.4383 31.8087 46.3836 34.9301C46.3836 38.0515 44.2485 40.6001 41.5112 40.6001Z" fill="#434EE3"/>
</svg>
