<svg width="313" height="146" viewBox="0 0 313 146" fill="none" xmlns="http://www.w3.org/2000/svg">
<path d="M12.2686 55.3875C12.2686 41.9186 23.1872 31 36.656 31V31V66.2976H12.2686V55.3875Z" fill="#E9E9EB" stroke="#E9E9EB"/>
<rect x="12.2686" y="66.2976" width="24.3874" height="43.4048" fill="#E9E9EB" stroke="#E9E9EB"/>
<path fill-rule="evenodd" clip-rule="evenodd" d="M12.7111 125.262C12.4205 123.757 12.2684 122.203 12.2684 120.613V109.702H36.6558V145C30.7502 145 25.3349 142.901 21.1153 139.408C16.9056 142.213 10.1554 144.878 2 143.396C4.24621 142.433 12.9102 136.657 12.5893 125.105C12.6282 125.159 12.6688 125.211 12.7111 125.262Z" fill="#E9E9EB"/>
<path d="M12.7111 125.262L12.3256 125.58L13.202 125.167L12.7111 125.262ZM12.2684 109.702V109.202H11.7684V109.702H12.2684ZM36.6558 109.702H37.1558V109.202H36.6558V109.702ZM36.6558 145V145.5H37.1558V145H36.6558ZM21.1153 139.408L21.4341 139.023L21.1476 138.786L20.8381 138.992L21.1153 139.408ZM2 143.396L1.80304 142.936L0.276214 143.59L1.91056 143.888L2 143.396ZM12.5893 125.105L12.9936 124.811L12.0447 123.506L12.0895 125.119L12.5893 125.105ZM11.7684 120.613C11.7684 122.234 11.9236 123.821 12.2201 125.357L13.202 125.167C12.9175 123.693 12.7684 122.171 12.7684 120.613H11.7684ZM11.7684 109.702V120.613H12.7684V109.702H11.7684ZM36.6558 109.202H12.2684V110.202H36.6558V109.202ZM37.1558 145V109.702H36.1558V145H37.1558ZM20.7965 139.793C25.1024 143.358 30.6296 145.5 36.6558 145.5V144.5C30.8709 144.5 25.5674 142.444 21.4341 139.023L20.7965 139.793ZM1.91056 143.888C10.2252 145.399 17.1053 142.68 21.3925 139.824L20.8381 138.992C16.7058 141.745 10.0856 144.357 2.08944 142.904L1.91056 143.888ZM12.0895 125.119C12.2461 130.757 10.213 134.976 7.86687 137.909C5.51094 140.854 2.84955 142.487 1.80304 142.936L2.19696 143.855C3.39666 143.341 6.19035 141.605 8.64773 138.534C11.1149 135.45 13.2534 131.005 13.0891 125.091L12.0895 125.119ZM13.0965 124.944C13.0607 124.9 13.0264 124.856 12.9936 124.811L12.1849 125.399C12.23 125.461 12.2769 125.522 12.3256 125.58L13.0965 124.944Z" fill="#E9E9EB"/>
<rect x="36.6558" y="31" width="250.957" height="114" fill="#E9E9EB"/>
<path d="M39.4214 52.9375L43.8511 61.5039L48.2925 52.9375H50.8589L44.9761 63.625V70H42.7144V63.625L36.8315 52.9375H39.4214ZM51.2545 63.8008V63.5313C51.2545 62.6172 51.3873 61.7696 51.6529 60.9883C51.9186 60.1992 52.3014 59.5157 52.8014 58.9375C53.3014 58.3516 53.9069 57.8985 54.6178 57.5782C55.3287 57.25 56.1256 57.086 57.0084 57.086C57.899 57.086 58.6998 57.25 59.4108 57.5782C60.1295 57.8985 60.7389 58.3516 61.2389 58.9375C61.7467 59.5157 62.1334 60.1992 62.399 60.9883C62.6647 61.7696 62.7975 62.6172 62.7975 63.5313V63.8008C62.7975 64.7149 62.6647 65.5625 62.399 66.3438C62.1334 67.125 61.7467 67.8086 61.2389 68.3946C60.7389 68.9727 60.1334 69.4258 59.4225 69.7539C58.7194 70.0742 57.9225 70.2344 57.0319 70.2344C56.1412 70.2344 55.3404 70.0742 54.6295 69.7539C53.9186 69.4258 53.3092 68.9727 52.8014 68.3946C52.3014 67.8086 51.9186 67.125 51.6529 66.3438C51.3873 65.5625 51.2545 64.7149 51.2545 63.8008ZM53.4225 63.5313V63.8008C53.4225 64.4336 53.4967 65.0313 53.6451 65.5938C53.7936 66.1485 54.0162 66.6407 54.3131 67.0703C54.6178 67.5 54.9967 67.8399 55.4498 68.0899C55.9029 68.3321 56.4303 68.4532 57.0319 68.4532C57.6256 68.4532 58.1451 68.3321 58.5904 68.0899C59.0436 67.8399 59.4186 67.5 59.7154 67.0703C60.0123 66.6407 60.235 66.1485 60.3834 65.5938C60.5397 65.0313 60.6178 64.4336 60.6178 63.8008V63.5313C60.6178 62.9063 60.5397 62.3164 60.3834 61.7617C60.235 61.1992 60.0084 60.7032 59.7037 60.2735C59.4069 59.836 59.0319 59.4922 58.5787 59.2422C58.1334 58.9922 57.61 58.8672 57.0084 58.8672C56.4147 58.8672 55.8912 58.9922 55.4381 59.2422C54.9928 59.4922 54.6178 59.836 54.3131 60.2735C54.0162 60.7032 53.7936 61.1992 53.6451 61.7617C53.4967 62.3164 53.4225 62.9063 53.4225 63.5313ZM73.154 67.0703V57.3203H75.3337V70H73.2595L73.154 67.0703ZM73.5642 64.3985L74.4665 64.375C74.4665 65.2188 74.3767 66 74.197 66.7188C74.0251 67.4297 73.7439 68.0469 73.3533 68.5703C72.9626 69.0938 72.4509 69.5039 71.8181 69.8008C71.1853 70.0899 70.4158 70.2344 69.5095 70.2344C68.8923 70.2344 68.3259 70.1446 67.8103 69.9649C67.3025 69.7852 66.865 69.5078 66.4978 69.1328C66.1306 68.7578 65.8454 68.2696 65.6423 67.668C65.447 67.0664 65.3494 66.3438 65.3494 65.5V57.3203H67.5173V65.5235C67.5173 66.0938 67.5798 66.5664 67.7048 66.9414C67.8376 67.3086 68.0134 67.6016 68.2322 67.8203C68.4587 68.0313 68.7087 68.1797 68.9822 68.2657C69.2634 68.3516 69.5525 68.3946 69.8494 68.3946C70.7712 68.3946 71.5017 68.2188 72.0408 67.8672C72.5798 67.5078 72.9665 67.0274 73.2009 66.4258C73.4431 65.8164 73.5642 65.1407 73.5642 64.3985ZM86.5195 52V70H84.3515V52H86.5195ZM86.0039 63.1797L85.1015 63.1446C85.1094 62.2774 85.2383 61.4766 85.4883 60.7422C85.7383 60 86.0898 59.3555 86.5429 58.8086C86.9961 58.2617 87.5351 57.8399 88.1601 57.543C88.7929 57.2383 89.4922 57.086 90.2578 57.086C90.8828 57.086 91.4453 57.1719 91.9453 57.3438C92.4453 57.5078 92.8711 57.7735 93.2226 58.1407C93.582 58.5078 93.8554 58.9844 94.0429 59.5703C94.2304 60.1485 94.3242 60.8555 94.3242 61.6914V70H92.1445V61.668C92.1445 61.0039 92.0469 60.4727 91.8515 60.0742C91.6562 59.668 91.3711 59.375 90.9961 59.1953C90.6211 59.0078 90.1601 58.9141 89.6133 58.9141C89.0742 58.9141 88.582 59.0274 88.1367 59.2539C87.6992 59.4805 87.3203 59.793 87 60.1914C86.6875 60.5899 86.4414 61.0469 86.2617 61.5625C86.0898 62.0703 86.0039 62.6094 86.0039 63.1797ZM104.927 67.8321V61.3047C104.927 60.8047 104.825 60.3711 104.622 60.0039C104.427 59.6289 104.13 59.3399 103.732 59.1367C103.333 58.9336 102.841 58.8321 102.255 58.8321C101.708 58.8321 101.228 58.9258 100.814 59.1133C100.407 59.3008 100.087 59.5469 99.8526 59.8516C99.6261 60.1563 99.5128 60.4844 99.5128 60.836H97.3448C97.3448 60.3828 97.462 59.9336 97.6964 59.4883C97.9308 59.043 98.2667 58.6407 98.7042 58.2813C99.1495 57.9141 99.6808 57.625 100.298 57.4141C100.923 57.1953 101.618 57.086 102.384 57.086C103.306 57.086 104.118 57.2422 104.821 57.5547C105.532 57.8672 106.087 58.3399 106.485 58.9727C106.892 59.5977 107.095 60.3828 107.095 61.3282V67.2344C107.095 67.6563 107.13 68.1055 107.2 68.5821C107.278 69.0586 107.392 69.4688 107.54 69.8125V70H105.278C105.169 69.75 105.083 69.418 105.021 69.0039C104.958 68.5821 104.927 68.1914 104.927 67.8321ZM105.302 62.3125L105.325 63.836H103.134C102.517 63.836 101.966 63.8867 101.482 63.9883C100.997 64.0821 100.591 64.2266 100.263 64.4219C99.9347 64.6172 99.6847 64.8633 99.5128 65.1602C99.3409 65.4492 99.255 65.7891 99.255 66.1797C99.255 66.5782 99.3448 66.9414 99.5245 67.2696C99.7042 67.5977 99.9737 67.8594 100.333 68.0547C100.7 68.2422 101.15 68.336 101.681 68.336C102.345 68.336 102.931 68.1953 103.439 67.9141C103.946 67.6328 104.349 67.2891 104.646 66.8828C104.95 66.4766 105.114 66.0821 105.138 65.6992L106.064 66.7422C106.009 67.0703 105.86 67.4336 105.618 67.8321C105.376 68.2305 105.052 68.6133 104.646 68.9805C104.247 69.3399 103.771 69.6407 103.216 69.8828C102.669 70.1172 102.052 70.2344 101.364 70.2344C100.505 70.2344 99.7511 70.0664 99.1026 69.7305C98.462 69.3946 97.962 68.9453 97.6026 68.3828C97.2511 67.8125 97.0753 67.1758 97.0753 66.4727C97.0753 65.793 97.2081 65.1953 97.4737 64.6797C97.7394 64.1563 98.1222 63.7227 98.6222 63.3789C99.1222 63.0274 99.7237 62.7617 100.427 62.5821C101.13 62.4024 101.915 62.3125 102.782 62.3125H105.302ZM114.053 68.043L117.522 57.3203H119.737L115.178 70H113.725L114.053 68.043ZM111.158 57.3203L114.733 68.1016L114.979 70H113.526L108.932 57.3203H111.158ZM126.8 70.2344C125.917 70.2344 125.117 70.086 124.398 69.7891C123.687 69.4844 123.074 69.0586 122.558 68.5117C122.05 67.9649 121.66 67.3164 121.386 66.5664C121.113 65.8164 120.976 64.9961 120.976 64.1055V63.6133C120.976 62.5821 121.128 61.6641 121.433 60.8594C121.738 60.0469 122.152 59.3594 122.675 58.7969C123.199 58.2344 123.792 57.8086 124.456 57.5196C125.12 57.2305 125.808 57.086 126.519 57.086C127.425 57.086 128.206 57.2422 128.863 57.5547C129.527 57.8672 130.07 58.3047 130.492 58.8672C130.913 59.4219 131.226 60.0782 131.429 60.836C131.632 61.586 131.734 62.4063 131.734 63.2969V64.2696H122.265V62.5H129.566V62.336C129.535 61.7735 129.417 61.2266 129.214 60.6953C129.019 60.1641 128.706 59.7266 128.277 59.3828C127.847 59.0391 127.261 58.8672 126.519 58.8672C126.027 58.8672 125.574 58.9727 125.16 59.1836C124.745 59.3867 124.39 59.6914 124.093 60.0977C123.796 60.5039 123.566 61 123.402 61.586C123.238 62.1719 123.156 62.8477 123.156 63.6133V64.1055C123.156 64.7071 123.238 65.2735 123.402 65.8047C123.574 66.3282 123.82 66.7891 124.14 67.1875C124.468 67.586 124.863 67.8985 125.324 68.125C125.792 68.3516 126.324 68.4649 126.917 68.4649C127.683 68.4649 128.331 68.3086 128.863 67.9961C129.394 67.6836 129.859 67.2657 130.257 66.7422L131.57 67.7852C131.296 68.1992 130.949 68.5938 130.527 68.9688C130.105 69.3438 129.585 69.6485 128.968 69.8828C128.359 70.1172 127.636 70.2344 126.8 70.2344ZM147.455 67.8321V61.3047C147.455 60.8047 147.353 60.3711 147.15 60.0039C146.955 59.6289 146.658 59.3399 146.259 59.1367C145.861 58.9336 145.369 58.8321 144.783 58.8321C144.236 58.8321 143.755 58.9258 143.341 59.1133C142.935 59.3008 142.615 59.5469 142.38 59.8516C142.154 60.1563 142.041 60.4844 142.041 60.836H139.873C139.873 60.3828 139.99 59.9336 140.224 59.4883C140.459 59.043 140.795 58.6407 141.232 58.2813C141.677 57.9141 142.209 57.625 142.826 57.4141C143.451 57.1953 144.146 57.086 144.912 57.086C145.834 57.086 146.646 57.2422 147.349 57.5547C148.06 57.8672 148.615 58.3399 149.013 58.9727C149.42 59.5977 149.623 60.3828 149.623 61.3282V67.2344C149.623 67.6563 149.658 68.1055 149.728 68.5821C149.806 69.0586 149.92 69.4688 150.068 69.8125V70H147.806C147.697 69.75 147.611 69.418 147.548 69.0039C147.486 68.5821 147.455 68.1914 147.455 67.8321ZM147.83 62.3125L147.853 63.836H145.662C145.045 63.836 144.494 63.8867 144.009 63.9883C143.525 64.0821 143.119 64.2266 142.791 64.4219C142.462 64.6172 142.212 64.8633 142.041 65.1602C141.869 65.4492 141.783 65.7891 141.783 66.1797C141.783 66.5782 141.873 66.9414 142.052 67.2696C142.232 67.5977 142.502 67.8594 142.861 68.0547C143.228 68.2422 143.677 68.336 144.209 68.336C144.873 68.336 145.459 68.1953 145.966 67.9141C146.474 67.6328 146.877 67.2891 147.173 66.8828C147.478 66.4766 147.642 66.0821 147.666 65.6992L148.591 66.7422C148.537 67.0703 148.388 67.4336 148.146 67.8321C147.904 68.2305 147.58 68.6133 147.173 68.9805C146.775 69.3399 146.298 69.6407 145.744 69.8828C145.197 70.1172 144.58 70.2344 143.892 70.2344C143.033 70.2344 142.279 70.0664 141.63 69.7305C140.99 69.3946 140.49 68.9453 140.13 68.3828C139.779 67.8125 139.603 67.1758 139.603 66.4727C139.603 65.793 139.736 65.1953 140.002 64.6797C140.267 64.1563 140.65 63.7227 141.15 63.3789C141.65 63.0274 142.252 62.7617 142.955 62.5821C143.658 62.4024 144.443 62.3125 145.31 62.3125H147.83ZM166.961 57.3203H168.93V69.7305C168.93 70.8477 168.703 71.8008 168.25 72.5899C167.797 73.3789 167.164 73.9766 166.351 74.3828C165.547 74.7969 164.617 75.0039 163.562 75.0039C163.125 75.0039 162.609 74.9336 162.015 74.793C161.43 74.6602 160.851 74.4297 160.281 74.1016C159.719 73.7813 159.246 73.3477 158.863 72.8008L160 71.5117C160.531 72.1524 161.086 72.5977 161.664 72.8477C162.25 73.0977 162.828 73.2227 163.398 73.2227C164.086 73.2227 164.68 73.0938 165.18 72.836C165.68 72.5782 166.066 72.1953 166.34 71.6875C166.621 71.1875 166.762 70.5703 166.762 69.836V60.1094L166.961 57.3203ZM158.23 63.8008V63.5547C158.23 62.586 158.344 61.7071 158.57 60.918C158.805 60.1211 159.137 59.4375 159.566 58.8672C160.004 58.2969 160.531 57.8594 161.148 57.5547C161.765 57.2422 162.461 57.086 163.234 57.086C164.031 57.086 164.726 57.2266 165.32 57.5078C165.922 57.7813 166.43 58.1836 166.844 58.7149C167.265 59.2383 167.597 59.8711 167.84 60.6133C168.082 61.3555 168.25 62.1953 168.344 63.1328V64.211C168.258 65.1407 168.09 65.9766 167.84 66.7188C167.597 67.461 167.265 68.0938 166.844 68.6172C166.43 69.1407 165.922 69.543 165.32 69.8242C164.719 70.0977 164.015 70.2344 163.211 70.2344C162.453 70.2344 161.765 70.0742 161.148 69.7539C160.539 69.4336 160.015 68.9844 159.578 68.4063C159.14 67.8282 158.805 67.1485 158.57 66.3672C158.344 65.5782 158.23 64.7227 158.23 63.8008ZM160.398 63.5547V63.8008C160.398 64.4336 160.461 65.0274 160.586 65.5821C160.719 66.1367 160.918 66.625 161.183 67.0469C161.457 67.4688 161.805 67.8008 162.226 68.043C162.648 68.2774 163.152 68.3946 163.738 68.3946C164.457 68.3946 165.051 68.2422 165.519 67.9375C165.988 67.6328 166.359 67.2305 166.633 66.7305C166.914 66.2305 167.133 65.6875 167.289 65.1016V62.2774C167.203 61.8477 167.07 61.4336 166.89 61.0352C166.719 60.6289 166.492 60.2696 166.211 59.9571C165.937 59.6367 165.597 59.3828 165.191 59.1953C164.785 59.0078 164.308 58.9141 163.762 58.9141C163.168 58.9141 162.656 59.0391 162.226 59.2891C161.805 59.5313 161.457 59.8672 161.183 60.2969C160.918 60.7188 160.719 61.211 160.586 61.7735C160.461 62.3282 160.398 62.9219 160.398 63.5547ZM179.579 67.8321V61.3047C179.579 60.8047 179.477 60.3711 179.274 60.0039C179.079 59.6289 178.782 59.3399 178.384 59.1367C177.985 58.9336 177.493 58.8321 176.907 58.8321C176.36 58.8321 175.88 58.9258 175.466 59.1133C175.06 59.3008 174.739 59.5469 174.505 59.8516C174.278 60.1563 174.165 60.4844 174.165 60.836H171.997C171.997 60.3828 172.114 59.9336 172.349 59.4883C172.583 59.043 172.919 58.6407 173.356 58.2813C173.802 57.9141 174.333 57.625 174.95 57.4141C175.575 57.1953 176.27 57.086 177.036 57.086C177.958 57.086 178.77 57.2422 179.474 57.5547C180.185 57.8672 180.739 58.3399 181.138 58.9727C181.544 59.5977 181.747 60.3828 181.747 61.3282V67.2344C181.747 67.6563 181.782 68.1055 181.852 68.5821C181.931 69.0586 182.044 69.4688 182.192 69.8125V70H179.931C179.821 69.75 179.735 69.418 179.673 69.0039C179.61 68.5821 179.579 68.1914 179.579 67.8321ZM179.954 62.3125L179.977 63.836H177.786C177.169 63.836 176.618 63.8867 176.134 63.9883C175.649 64.0821 175.243 64.2266 174.915 64.4219C174.587 64.6172 174.337 64.8633 174.165 65.1602C173.993 65.4492 173.907 65.7891 173.907 66.1797C173.907 66.5782 173.997 66.9414 174.177 67.2696C174.356 67.5977 174.626 67.8594 174.985 68.0547C175.352 68.2422 175.802 68.336 176.333 68.336C176.997 68.336 177.583 68.1953 178.091 67.9141C178.599 67.6328 179.001 67.2891 179.298 66.8828C179.602 66.4766 179.767 66.0821 179.79 65.6992L180.716 66.7422C180.661 67.0703 180.513 67.4336 180.27 67.8321C180.028 68.2305 179.704 68.6133 179.298 68.9805C178.899 69.3399 178.423 69.6407 177.868 69.8828C177.321 70.1172 176.704 70.2344 176.017 70.2344C175.157 70.2344 174.403 70.0664 173.755 69.7305C173.114 69.3946 172.614 68.9453 172.255 68.3828C171.903 67.8125 171.727 67.1758 171.727 66.4727C171.727 65.793 171.86 65.1953 172.126 64.6797C172.392 64.1563 172.774 63.7227 173.274 63.3789C173.774 63.0274 174.376 62.7617 175.079 62.5821C175.782 62.4024 176.567 62.3125 177.435 62.3125H179.954ZM187.393 57.3203V70H185.213V57.3203H187.393ZM185.049 53.9571C185.049 53.6055 185.154 53.3086 185.365 53.0664C185.584 52.8242 185.904 52.7032 186.326 52.7032C186.74 52.7032 187.057 52.8242 187.275 53.0664C187.502 53.3086 187.615 53.6055 187.615 53.9571C187.615 54.293 187.502 54.5821 187.275 54.8242C187.057 55.0586 186.74 55.1758 186.326 55.1758C185.904 55.1758 185.584 55.0586 185.365 54.8242C185.154 54.5821 185.049 54.293 185.049 53.9571ZM192.921 60.0274V70H190.753V57.3203H192.804L192.921 60.0274ZM192.405 63.1797L191.503 63.1446C191.511 62.2774 191.64 61.4766 191.89 60.7422C192.14 60 192.491 59.3555 192.945 58.8086C193.398 58.2617 193.937 57.8399 194.562 57.543C195.195 57.2383 195.894 57.086 196.659 57.086C197.284 57.086 197.847 57.1719 198.347 57.3438C198.847 57.5078 199.273 57.7735 199.624 58.1407C199.984 58.5078 200.257 58.9844 200.445 59.5703C200.632 60.1485 200.726 60.8555 200.726 61.6914V70H198.546V61.668C198.546 61.0039 198.448 60.4727 198.253 60.0742C198.058 59.668 197.773 59.375 197.398 59.1953C197.023 59.0078 196.562 58.9141 196.015 58.9141C195.476 58.9141 194.984 59.0274 194.538 59.2539C194.101 59.4805 193.722 59.793 193.402 60.1914C193.089 60.5899 192.843 61.0469 192.663 61.5625C192.491 62.0703 192.405 62.6094 192.405 63.1797ZM209.158 63.8008V63.5313C209.158 62.6172 209.29 61.7696 209.556 60.9883C209.822 60.1992 210.205 59.5157 210.705 58.9375C211.205 58.3516 211.81 57.8985 212.521 57.5782C213.232 57.25 214.029 57.086 214.912 57.086C215.802 57.086 216.603 57.25 217.314 57.5782C218.033 57.8985 218.642 58.3516 219.142 58.9375C219.65 59.5157 220.037 60.1992 220.302 60.9883C220.568 61.7696 220.701 62.6172 220.701 63.5313V63.8008C220.701 64.7149 220.568 65.5625 220.302 66.3438C220.037 67.125 219.65 67.8086 219.142 68.3946C218.642 68.9727 218.037 69.4258 217.326 69.7539C216.622 70.0742 215.826 70.2344 214.935 70.2344C214.044 70.2344 213.244 70.0742 212.533 69.7539C211.822 69.4258 211.212 68.9727 210.705 68.3946C210.205 67.8086 209.822 67.125 209.556 66.3438C209.29 65.5625 209.158 64.7149 209.158 63.8008ZM211.326 63.5313V63.8008C211.326 64.4336 211.4 65.0313 211.548 65.5938C211.697 66.1485 211.919 66.6407 212.216 67.0703C212.521 67.5 212.9 67.8399 213.353 68.0899C213.806 68.3321 214.333 68.4532 214.935 68.4532C215.529 68.4532 216.048 68.3321 216.494 68.0899C216.947 67.8399 217.322 67.5 217.619 67.0703C217.915 66.6407 218.138 66.1485 218.287 65.5938C218.443 65.0313 218.521 64.4336 218.521 63.8008V63.5313C218.521 62.9063 218.443 62.3164 218.287 61.7617C218.138 61.1992 217.912 60.7032 217.607 60.2735C217.31 59.836 216.935 59.4922 216.482 59.2422C216.037 58.9922 215.513 58.8672 214.912 58.8672C214.318 58.8672 213.794 58.9922 213.341 59.2422C212.896 59.4922 212.521 59.836 212.216 60.2735C211.919 60.7032 211.697 61.1992 211.548 61.7617C211.4 62.3164 211.326 62.9063 211.326 63.5313ZM226.534 70H224.366V55.9844C224.366 55.0703 224.53 54.3008 224.858 53.6758C225.194 53.043 225.674 52.5664 226.299 52.2461C226.924 51.918 227.667 51.7539 228.526 51.7539C228.776 51.7539 229.026 51.7696 229.276 51.8008C229.534 51.8321 229.784 51.8789 230.026 51.9414L229.909 53.711C229.745 53.6719 229.557 53.6446 229.346 53.6289C229.143 53.6133 228.94 53.6055 228.737 53.6055C228.276 53.6055 227.877 53.6992 227.542 53.8867C227.213 54.0664 226.963 54.3321 226.792 54.6836C226.62 55.0352 226.534 55.4688 226.534 55.9844V70ZM229.229 57.3203V58.9844H222.362V57.3203H229.229ZM45.1987 78.8438V96H43.0308V81.5508L38.6597 83.1446V81.1875L44.8589 78.8438H45.1987ZM62.6334 94.2188V96H51.4654V94.4414L57.0553 88.2188C57.7428 87.4532 58.274 86.8047 58.649 86.2735C59.0319 85.7344 59.2975 85.2539 59.4459 84.8321C59.6022 84.4024 59.6803 83.9649 59.6803 83.5196C59.6803 82.9571 59.5631 82.4492 59.3287 81.9961C59.1022 81.5352 58.7662 81.168 58.3209 80.8946C57.8756 80.6211 57.3365 80.4844 56.7037 80.4844C55.9459 80.4844 55.3131 80.6328 54.8053 80.9297C54.3053 81.2188 53.9303 81.625 53.6803 82.1485C53.4303 82.6719 53.3053 83.2735 53.3053 83.9532H51.1373C51.1373 82.9922 51.3483 82.1133 51.7701 81.3164C52.192 80.5196 52.817 79.8867 53.6451 79.418C54.4733 78.9414 55.4928 78.7032 56.7037 78.7032C57.7819 78.7032 58.7037 78.8946 59.4694 79.2774C60.235 79.6524 60.8209 80.1836 61.2272 80.8711C61.6412 81.5508 61.8483 82.3477 61.8483 83.2617C61.8483 83.7617 61.7623 84.2696 61.5904 84.7852C61.4264 85.293 61.1959 85.8008 60.899 86.3086C60.61 86.8164 60.2701 87.3164 59.8795 87.8086C59.4967 88.3008 59.0865 88.7852 58.649 89.2617L54.0787 94.2188H62.6334ZM67.5759 87.8789L65.8415 87.4336L66.697 78.9375H75.4509V80.9414H68.5369L68.0212 85.5821C68.3337 85.4024 68.7283 85.2344 69.2048 85.0782C69.6892 84.9219 70.2439 84.8438 70.8689 84.8438C71.6579 84.8438 72.365 84.9805 72.99 85.2539C73.615 85.5196 74.1462 85.9024 74.5837 86.4024C75.029 86.9024 75.3689 87.5039 75.6033 88.2071C75.8376 88.9102 75.9548 89.6953 75.9548 90.5625C75.9548 91.3828 75.8415 92.1367 75.615 92.8242C75.3962 93.5117 75.0642 94.1133 74.6189 94.6289C74.1736 95.1367 73.6111 95.5313 72.9314 95.8125C72.2595 96.0938 71.4665 96.2344 70.5525 96.2344C69.865 96.2344 69.2126 96.1407 68.5954 95.9532C67.9861 95.7578 67.4392 95.4649 66.9548 95.0742C66.4783 94.6758 66.0876 94.1836 65.7829 93.5977C65.4861 93.0039 65.2986 92.3086 65.2204 91.5117H67.2829C67.3767 92.1524 67.5642 92.6914 67.8454 93.1289C68.1267 93.5664 68.4939 93.8985 68.947 94.125C69.4079 94.3438 69.9431 94.4532 70.5525 94.4532C71.0681 94.4532 71.5251 94.3633 71.9236 94.1836C72.322 94.0039 72.6579 93.7461 72.9314 93.4102C73.2048 93.0742 73.4119 92.668 73.5525 92.1914C73.7009 91.7149 73.7751 91.1797 73.7751 90.586C73.7751 90.0469 73.7009 89.5469 73.5525 89.086C73.404 88.625 73.1814 88.2227 72.8845 87.8789C72.5954 87.5352 72.24 87.2696 71.8181 87.0821C71.3962 86.8867 70.9119 86.7891 70.365 86.7891C69.6384 86.7891 69.0876 86.8867 68.7126 87.0821C68.3454 87.2774 67.9665 87.543 67.5759 87.8789ZM80.4169 93.4219V95.168C80.4169 95.8789 80.2372 96.6289 79.8778 97.418C79.5184 98.2149 79.0145 98.8789 78.3661 99.4102L77.1356 98.5547C77.3856 98.211 77.5965 97.8594 77.7684 97.5C77.9403 97.1485 78.0692 96.7813 78.1551 96.3985C78.2489 96.0235 78.2958 95.625 78.2958 95.2032V93.4219H80.4169ZM93.539 86.1094V88.711C93.539 90.1094 93.414 91.2891 93.164 92.25C92.914 93.211 92.5547 93.9844 92.0859 94.5703C91.6172 95.1563 91.0508 95.5821 90.3867 95.8477C89.7304 96.1055 88.9883 96.2344 88.1601 96.2344C87.5039 96.2344 86.8984 96.1524 86.3437 95.9883C85.789 95.8242 85.289 95.5625 84.8437 95.2032C84.4062 94.836 84.0312 94.3594 83.7187 93.7735C83.4062 93.1875 83.1679 92.4766 83.0039 91.6407C82.8398 90.8047 82.7578 89.8282 82.7578 88.711V86.1094C82.7578 84.711 82.8828 83.5391 83.1328 82.5938C83.3906 81.6485 83.7539 80.8907 84.2226 80.3203C84.6914 79.7422 85.2539 79.3282 85.9101 79.0782C86.5742 78.8282 87.3164 78.7032 88.1367 78.7032C88.8008 78.7032 89.4101 78.7852 89.9648 78.9492C90.5273 79.1055 91.0273 79.3594 91.4648 79.711C91.9023 80.0547 92.2734 80.5157 92.5781 81.0938C92.8906 81.6641 93.1289 82.3633 93.2929 83.1914C93.457 84.0196 93.539 84.9922 93.539 86.1094ZM91.3594 89.0625V85.7461C91.3594 84.9805 91.3125 84.3086 91.2187 83.7305C91.1328 83.1446 91.0039 82.6446 90.832 82.2305C90.6601 81.8164 90.4414 81.4805 90.1758 81.2227C89.9179 80.9649 89.6172 80.7774 89.2734 80.6602C88.9375 80.5352 88.5586 80.4727 88.1367 80.4727C87.6211 80.4727 87.164 80.5703 86.7656 80.7657C86.3672 80.9532 86.0312 81.2539 85.7578 81.668C85.4922 82.0821 85.289 82.625 85.1484 83.2969C85.0078 83.9688 84.9375 84.7852 84.9375 85.7461V89.0625C84.9375 89.8282 84.9804 90.5039 85.0664 91.0899C85.1601 91.6758 85.2969 92.1836 85.4765 92.6133C85.6562 93.0352 85.875 93.3828 86.1328 93.6563C86.3906 93.9297 86.6875 94.1328 87.0234 94.2657C87.3672 94.3907 87.7461 94.4532 88.1601 94.4532C88.6914 94.4532 89.1562 94.3516 89.5547 94.1485C89.9531 93.9453 90.2851 93.6289 90.5508 93.1992C90.8242 92.7617 91.0273 92.2032 91.1601 91.5235C91.2929 90.836 91.3594 90.0157 91.3594 89.0625ZM106.919 86.1094V88.711C106.919 90.1094 106.794 91.2891 106.544 92.25C106.294 93.211 105.935 93.9844 105.466 94.5703C104.997 95.1563 104.431 95.5821 103.767 95.8477C103.11 96.1055 102.368 96.2344 101.54 96.2344C100.884 96.2344 100.278 96.1524 99.7237 95.9883C99.169 95.8242 98.669 95.5625 98.2237 95.2032C97.7862 94.836 97.4112 94.3594 97.0987 93.7735C96.7862 93.1875 96.548 92.4766 96.3839 91.6407C96.2198 90.8047 96.1378 89.8282 96.1378 88.711V86.1094C96.1378 84.711 96.2628 83.5391 96.5128 82.5938C96.7706 81.6485 97.1339 80.8907 97.6026 80.3203C98.0714 79.7422 98.6339 79.3282 99.2901 79.0782C99.9542 78.8282 100.696 78.7032 101.517 78.7032C102.181 78.7032 102.79 78.7852 103.345 78.9492C103.907 79.1055 104.407 79.3594 104.845 79.711C105.282 80.0547 105.653 80.5157 105.958 81.0938C106.271 81.6641 106.509 82.3633 106.673 83.1914C106.837 84.0196 106.919 84.9922 106.919 86.1094ZM104.739 89.0625V85.7461C104.739 84.9805 104.692 84.3086 104.599 83.7305C104.513 83.1446 104.384 82.6446 104.212 82.2305C104.04 81.8164 103.821 81.4805 103.556 81.2227C103.298 80.9649 102.997 80.7774 102.653 80.6602C102.317 80.5352 101.939 80.4727 101.517 80.4727C101.001 80.4727 100.544 80.5703 100.146 80.7657C99.7472 80.9532 99.4112 81.2539 99.1378 81.668C98.8722 82.0821 98.669 82.625 98.5284 83.2969C98.3878 83.9688 98.3175 84.7852 98.3175 85.7461V89.0625C98.3175 89.8282 98.3605 90.5039 98.4464 91.0899C98.5401 91.6758 98.6769 92.1836 98.8565 92.6133C99.0362 93.0352 99.255 93.3828 99.5128 93.6563C99.7706 93.9297 100.067 94.1328 100.403 94.2657C100.747 94.3907 101.126 94.4532 101.54 94.4532C102.071 94.4532 102.536 94.3516 102.935 94.1485C103.333 93.9453 103.665 93.6289 103.931 93.1992C104.204 92.7617 104.407 92.2032 104.54 91.5235C104.673 90.836 104.739 90.0157 104.739 89.0625ZM120.299 86.1094V88.711C120.299 90.1094 120.174 91.2891 119.924 92.25C119.674 93.211 119.315 93.9844 118.846 94.5703C118.377 95.1563 117.811 95.5821 117.147 95.8477C116.49 96.1055 115.748 96.2344 114.92 96.2344C114.264 96.2344 113.658 96.1524 113.104 95.9883C112.549 95.8242 112.049 95.5625 111.604 95.2032C111.166 94.836 110.791 94.3594 110.479 93.7735C110.166 93.1875 109.928 92.4766 109.764 91.6407C109.6 90.8047 109.518 89.8282 109.518 88.711V86.1094C109.518 84.711 109.643 83.5391 109.893 82.5938C110.151 81.6485 110.514 80.8907 110.983 80.3203C111.451 79.7422 112.014 79.3282 112.67 79.0782C113.334 78.8282 114.076 78.7032 114.897 78.7032C115.561 78.7032 116.17 78.7852 116.725 78.9492C117.287 79.1055 117.787 79.3594 118.225 79.711C118.662 80.0547 119.033 80.5157 119.338 81.0938C119.651 81.6641 119.889 82.3633 120.053 83.1914C120.217 84.0196 120.299 84.9922 120.299 86.1094ZM118.119 89.0625V85.7461C118.119 84.9805 118.072 84.3086 117.979 83.7305C117.893 83.1446 117.764 82.6446 117.592 82.2305C117.42 81.8164 117.201 81.4805 116.936 81.2227C116.678 80.9649 116.377 80.7774 116.033 80.6602C115.697 80.5352 115.319 80.4727 114.897 80.4727C114.381 80.4727 113.924 80.5703 113.526 80.7657C113.127 80.9532 112.791 81.2539 112.518 81.668C112.252 82.0821 112.049 82.625 111.908 83.2969C111.768 83.9688 111.697 84.7852 111.697 85.7461V89.0625C111.697 89.8282 111.74 90.5039 111.826 91.0899C111.92 91.6758 112.057 92.1836 112.237 92.6133C112.416 93.0352 112.635 93.3828 112.893 93.6563C113.151 93.9297 113.447 94.1328 113.783 94.2657C114.127 94.3907 114.506 94.4532 114.92 94.4532C115.451 94.4532 115.916 94.3516 116.315 94.1485C116.713 93.9453 117.045 93.6289 117.311 93.1992C117.584 92.7617 117.787 92.2032 117.92 91.5235C118.053 90.836 118.119 90.0157 118.119 89.0625ZM129.449 76.1719V79.7461H127.691V76.1719H129.449ZM129.238 95.3086V98.4375H127.492V95.3086H129.238ZM131.581 91.6055C131.581 91.1367 131.476 90.7149 131.265 90.3399C131.054 89.9649 130.706 89.6211 130.222 89.3086C129.738 88.9961 129.089 88.7071 128.277 88.4414C127.292 88.1367 126.441 87.7657 125.722 87.3282C125.011 86.8907 124.46 86.3477 124.07 85.6992C123.687 85.0508 123.495 84.2657 123.495 83.3438C123.495 82.3828 123.702 81.5547 124.117 80.8594C124.531 80.1641 125.117 79.6289 125.874 79.2539C126.632 78.8789 127.523 78.6914 128.546 78.6914C129.343 78.6914 130.054 78.8125 130.679 79.0547C131.304 79.2891 131.831 79.6407 132.261 80.1094C132.699 80.5782 133.031 81.1524 133.257 81.8321C133.492 82.5117 133.609 83.2969 133.609 84.1875H131.452C131.452 83.6641 131.39 83.1836 131.265 82.7461C131.14 82.3086 130.952 81.9297 130.702 81.6094C130.452 81.2813 130.148 81.0313 129.788 80.8594C129.429 80.6797 129.015 80.5899 128.546 80.5899C127.89 80.5899 127.347 80.7032 126.917 80.9297C126.495 81.1563 126.183 81.4766 125.98 81.8907C125.777 82.2969 125.675 82.7696 125.675 83.3086C125.675 83.8086 125.777 84.2461 125.98 84.6211C126.183 84.9961 126.527 85.336 127.011 85.6407C127.503 85.9375 128.179 86.2305 129.038 86.5196C130.046 86.8399 130.902 87.2188 131.605 87.6563C132.308 88.086 132.843 88.6172 133.21 89.25C133.577 89.875 133.761 90.6524 133.761 91.5821C133.761 92.5899 133.535 93.4414 133.081 94.1367C132.628 94.8242 131.992 95.3477 131.171 95.7071C130.351 96.0664 129.39 96.2461 128.288 96.2461C127.624 96.2461 126.968 96.1563 126.32 95.9766C125.671 95.7969 125.085 95.5039 124.562 95.0977C124.038 94.6836 123.62 94.1407 123.308 93.4688C122.995 92.7891 122.839 91.9571 122.839 90.9727H125.019C125.019 91.6367 125.113 92.1875 125.3 92.625C125.495 93.0547 125.753 93.3985 126.074 93.6563C126.394 93.9063 126.745 94.086 127.128 94.1953C127.519 94.2969 127.906 94.3477 128.288 94.3477C128.992 94.3477 129.585 94.2383 130.07 94.0196C130.562 93.793 130.937 93.4727 131.195 93.0586C131.452 92.6446 131.581 92.1602 131.581 91.6055ZM145.65 96H143.482V81.9844C143.482 81.0703 143.646 80.3008 143.974 79.6758C144.31 79.043 144.791 78.5664 145.416 78.2461C146.041 77.918 146.783 77.7539 147.642 77.7539C147.892 77.7539 148.142 77.7696 148.392 77.8008C148.65 77.8321 148.9 77.8789 149.142 77.9414L149.025 79.711C148.861 79.6719 148.673 79.6446 148.462 79.6289C148.259 79.6133 148.056 79.6055 147.853 79.6055C147.392 79.6055 146.994 79.6992 146.658 79.8867C146.33 80.0664 146.08 80.3321 145.908 80.6836C145.736 81.0352 145.65 81.4688 145.65 81.9844V96ZM148.345 83.3203V84.9844H141.478V83.3203H148.345ZM150.065 89.8008V89.5313C150.065 88.6172 150.198 87.7696 150.464 86.9883C150.729 86.1992 151.112 85.5157 151.612 84.9375C152.112 84.3516 152.717 83.8985 153.428 83.5782C154.139 83.25 154.936 83.086 155.819 83.086C156.71 83.086 157.51 83.25 158.221 83.5782C158.94 83.8985 159.55 84.3516 160.05 84.9375C160.557 85.5157 160.944 86.1992 161.21 86.9883C161.475 87.7696 161.608 88.6172 161.608 89.5313V89.8008C161.608 90.7149 161.475 91.5625 161.21 92.3438C160.944 93.125 160.557 93.8086 160.05 94.3946C159.55 94.9727 158.944 95.4258 158.233 95.7539C157.53 96.0742 156.733 96.2344 155.842 96.2344C154.952 96.2344 154.151 96.0742 153.44 95.7539C152.729 95.4258 152.12 94.9727 151.612 94.3946C151.112 93.8086 150.729 93.125 150.464 92.3438C150.198 91.5625 150.065 90.7149 150.065 89.8008ZM152.233 89.5313V89.8008C152.233 90.4336 152.307 91.0313 152.456 91.5938C152.604 92.1485 152.827 92.6407 153.124 93.0703C153.428 93.5 153.807 93.8399 154.26 94.0899C154.714 94.3321 155.241 94.4532 155.842 94.4532C156.436 94.4532 156.956 94.3321 157.401 94.0899C157.854 93.8399 158.229 93.5 158.526 93.0703C158.823 92.6407 159.046 92.1485 159.194 91.5938C159.35 91.0313 159.428 90.4336 159.428 89.8008V89.5313C159.428 88.9063 159.35 88.3164 159.194 87.7617C159.046 87.1992 158.819 86.7032 158.514 86.2735C158.217 85.836 157.842 85.4922 157.389 85.2422C156.944 84.9922 156.421 84.8672 155.819 84.8672C155.225 84.8672 154.702 84.9922 154.249 85.2422C153.803 85.4922 153.428 85.836 153.124 86.2735C152.827 86.7032 152.604 87.1992 152.456 87.7617C152.307 88.3164 152.233 88.9063 152.233 89.5313ZM166.375 85.3125V96H164.207V83.3203H166.316L166.375 85.3125ZM170.336 83.25L170.324 85.2657C170.144 85.2266 169.972 85.2032 169.808 85.1953C169.652 85.1797 169.472 85.1719 169.269 85.1719C168.769 85.1719 168.328 85.25 167.945 85.4063C167.562 85.5625 167.238 85.7813 166.972 86.0625C166.707 86.3438 166.496 86.6797 166.34 87.0703C166.191 87.4532 166.094 87.875 166.047 88.336L165.437 88.6875C165.437 87.9219 165.512 87.2032 165.66 86.5313C165.816 85.8594 166.055 85.2657 166.375 84.75C166.695 84.2266 167.101 83.8203 167.594 83.5313C168.094 83.2344 168.687 83.086 169.375 83.086C169.531 83.086 169.711 83.1055 169.914 83.1446C170.117 83.1758 170.258 83.211 170.336 83.25ZM185.529 93.8321V87.3047C185.529 86.8047 185.428 86.3711 185.225 86.0039C185.029 85.6289 184.732 85.3399 184.334 85.1367C183.936 84.9336 183.443 84.8321 182.857 84.8321C182.311 84.8321 181.83 84.9258 181.416 85.1133C181.01 85.3008 180.69 85.5469 180.455 85.8516C180.229 86.1563 180.115 86.4844 180.115 86.836H177.947C177.947 86.3828 178.065 85.9336 178.299 85.4883C178.533 85.043 178.869 84.6407 179.307 84.2813C179.752 83.9141 180.283 83.625 180.9 83.4141C181.525 83.1953 182.221 83.086 182.986 83.086C183.908 83.086 184.721 83.2422 185.424 83.5547C186.135 83.8672 186.69 84.3399 187.088 84.9727C187.494 85.5977 187.697 86.3828 187.697 87.3282V93.2344C187.697 93.6563 187.732 94.1055 187.803 94.5821C187.881 95.0586 187.994 95.4688 188.143 95.8125V96H185.881C185.772 95.75 185.686 95.418 185.623 95.0039C185.561 94.5821 185.529 94.1914 185.529 93.8321ZM185.904 88.3125L185.928 89.836H183.736C183.119 89.836 182.568 89.8867 182.084 89.9883C181.6 90.0821 181.193 90.2266 180.865 90.4219C180.537 90.6172 180.287 90.8633 180.115 91.1602C179.943 91.4492 179.857 91.7891 179.857 92.1797C179.857 92.5782 179.947 92.9414 180.127 93.2696C180.307 93.5977 180.576 93.8594 180.936 94.0547C181.303 94.2422 181.752 94.336 182.283 94.336C182.947 94.336 183.533 94.1953 184.041 93.9141C184.549 93.6328 184.951 93.2891 185.248 92.8828C185.553 92.4766 185.717 92.0821 185.74 91.6992L186.666 92.7422C186.611 93.0703 186.463 93.4336 186.221 93.8321C185.979 94.2305 185.654 94.6133 185.248 94.9805C184.85 95.3399 184.373 95.6407 183.818 95.8828C183.272 96.1172 182.654 96.2344 181.967 96.2344C181.107 96.2344 180.354 96.0664 179.705 95.7305C179.065 95.3946 178.565 94.9453 178.205 94.3828C177.854 93.8125 177.678 93.1758 177.678 92.4727C177.678 91.793 177.811 91.1953 178.076 90.6797C178.342 90.1563 178.725 89.7227 179.225 89.3789C179.725 89.0274 180.326 88.7617 181.029 88.5821C181.732 88.4024 182.518 88.3125 183.385 88.3125H185.904ZM193.343 78V96H191.163V78H193.343ZM199.059 78V96H196.879V78H199.059ZM207.678 89.8008V89.5313C207.678 88.6172 207.811 87.7696 208.077 86.9883C208.342 86.1992 208.725 85.5157 209.225 84.9375C209.725 84.3516 210.331 83.8985 211.042 83.5782C211.752 83.25 212.549 83.086 213.432 83.086C214.323 83.086 215.124 83.25 215.835 83.5782C216.553 83.8985 217.163 84.3516 217.663 84.9375C218.17 85.5157 218.557 86.1992 218.823 86.9883C219.088 87.7696 219.221 88.6172 219.221 89.5313V89.8008C219.221 90.7149 219.088 91.5625 218.823 92.3438C218.557 93.125 218.17 93.8086 217.663 94.3946C217.163 94.9727 216.557 95.4258 215.846 95.7539C215.143 96.0742 214.346 96.2344 213.456 96.2344C212.565 96.2344 211.764 96.0742 211.053 95.7539C210.342 95.4258 209.733 94.9727 209.225 94.3946C208.725 93.8086 208.342 93.125 208.077 92.3438C207.811 91.5625 207.678 90.7149 207.678 89.8008ZM209.846 89.5313V89.8008C209.846 90.4336 209.92 91.0313 210.069 91.5938C210.217 92.1485 210.44 92.6407 210.737 93.0703C211.042 93.5 211.42 93.8399 211.874 94.0899C212.327 94.3321 212.854 94.4532 213.456 94.4532C214.049 94.4532 214.569 94.3321 215.014 94.0899C215.467 93.8399 215.842 93.5 216.139 93.0703C216.436 92.6407 216.659 92.1485 216.807 91.5938C216.963 91.0313 217.042 90.4336 217.042 89.8008V89.5313C217.042 88.9063 216.963 88.3164 216.807 87.7617C216.659 87.1992 216.432 86.7032 216.127 86.2735C215.831 85.836 215.456 85.4922 215.002 85.2422C214.557 84.9922 214.034 84.8672 213.432 84.8672C212.838 84.8672 212.315 84.9922 211.862 85.2422C211.417 85.4922 211.042 85.836 210.737 86.2735C210.44 86.7032 210.217 87.1992 210.069 87.7617C209.92 88.3164 209.846 88.9063 209.846 89.5313ZM225.054 96H222.886V81.9844C222.886 81.0703 223.05 80.3008 223.379 79.6758C223.715 79.043 224.195 78.5664 224.82 78.2461C225.445 77.918 226.187 77.7539 227.047 77.7539C227.297 77.7539 227.547 77.7696 227.797 77.8008C228.054 77.8321 228.304 77.8789 228.547 77.9414L228.429 79.711C228.265 79.6719 228.078 79.6446 227.867 79.6289C227.664 79.6133 227.461 79.6055 227.257 79.6055C226.797 79.6055 226.398 79.6992 226.062 79.8867C225.734 80.0664 225.484 80.3321 225.312 80.6836C225.14 81.0352 225.054 81.4688 225.054 81.9844V96ZM227.75 83.3203V84.9844H220.882V83.3203H227.75ZM239.439 94.6875L242.967 83.3203H245.287L240.201 97.9571C240.084 98.2696 239.928 98.6055 239.732 98.9649C239.545 99.3321 239.303 99.6797 239.006 100.008C238.709 100.336 238.35 100.602 237.928 100.805C237.514 101.016 237.017 101.121 236.439 101.121C236.267 101.121 236.049 101.098 235.783 101.051C235.517 101.004 235.33 100.965 235.221 100.934L235.209 99.1758C235.271 99.1836 235.369 99.1914 235.502 99.1992C235.642 99.2149 235.74 99.2227 235.795 99.2227C236.287 99.2227 236.705 99.1563 237.049 99.0235C237.392 98.8985 237.682 98.6836 237.916 98.3789C238.158 98.0821 238.365 97.6719 238.537 97.1485L239.439 94.6875ZM236.85 83.3203L240.142 93.1641L240.705 95.4492L239.146 96.2461L234.482 83.3203H236.85ZM246.362 89.8008V89.5313C246.362 88.6172 246.495 87.7696 246.761 86.9883C247.026 86.1992 247.409 85.5157 247.909 84.9375C248.409 84.3516 249.015 83.8985 249.726 83.5782C250.437 83.25 251.233 83.086 252.116 83.086C253.007 83.086 253.808 83.25 254.519 83.5782C255.237 83.8985 255.847 84.3516 256.347 84.9375C256.855 85.5157 257.241 86.1992 257.507 86.9883C257.772 87.7696 257.905 88.6172 257.905 89.5313V89.8008C257.905 90.7149 257.772 91.5625 257.507 92.3438C257.241 93.125 256.855 93.8086 256.347 94.3946C255.847 94.9727 255.241 95.4258 254.53 95.7539C253.827 96.0742 253.03 96.2344 252.14 96.2344C251.249 96.2344 250.448 96.0742 249.737 95.7539C249.026 95.4258 248.417 94.9727 247.909 94.3946C247.409 93.8086 247.026 93.125 246.761 92.3438C246.495 91.5625 246.362 90.7149 246.362 89.8008ZM248.53 89.5313V89.8008C248.53 90.4336 248.605 91.0313 248.753 91.5938C248.901 92.1485 249.124 92.6407 249.421 93.0703C249.726 93.5 250.105 93.8399 250.558 94.0899C251.011 94.3321 251.538 94.4532 252.14 94.4532C252.733 94.4532 253.253 94.3321 253.698 94.0899C254.151 93.8399 254.526 93.5 254.823 93.0703C255.12 92.6407 255.343 92.1485 255.491 91.5938C255.647 91.0313 255.726 90.4336 255.726 89.8008V89.5313C255.726 88.9063 255.647 88.3164 255.491 87.7617C255.343 87.1992 255.116 86.7032 254.812 86.2735C254.515 85.836 254.14 85.4922 253.687 85.2422C253.241 84.9922 252.718 84.8672 252.116 84.8672C251.522 84.8672 250.999 84.9922 250.546 85.2422C250.101 85.4922 249.726 85.836 249.421 86.2735C249.124 86.7032 248.901 87.1992 248.753 87.7617C248.605 88.3164 248.53 88.9063 248.53 89.5313ZM268.262 93.0703V83.3203H270.442V96H268.367L268.262 93.0703ZM268.672 90.3985L269.574 90.375C269.574 91.2188 269.485 92 269.305 92.7188C269.133 93.4297 268.852 94.0469 268.461 94.5703C268.07 95.0938 267.559 95.5039 266.926 95.8008C266.293 96.0899 265.524 96.2344 264.617 96.2344C264 96.2344 263.434 96.1446 262.918 95.9649C262.41 95.7852 261.973 95.5078 261.606 95.1328C261.238 94.7578 260.953 94.2696 260.75 93.668C260.555 93.0664 260.457 92.3438 260.457 91.5V83.3203H262.625V91.5235C262.625 92.0938 262.688 92.5664 262.813 92.9414C262.945 93.3086 263.121 93.6016 263.34 93.8203C263.567 94.0313 263.817 94.1797 264.09 94.2657C264.371 94.3516 264.66 94.3946 264.957 94.3946C265.879 94.3946 266.61 94.2188 267.149 93.8672C267.688 93.5078 268.074 93.0274 268.309 92.4258C268.551 91.8164 268.672 91.1407 268.672 90.3985ZM275.794 85.3125V96H273.626V83.3203H275.736L275.794 85.3125ZM279.755 83.25L279.743 85.2657C279.564 85.2266 279.392 85.2032 279.228 85.1953C279.072 85.1797 278.892 85.1719 278.689 85.1719C278.189 85.1719 277.747 85.25 277.365 85.4063C276.982 85.5625 276.657 85.7813 276.392 86.0625C276.126 86.3438 275.915 86.6797 275.759 87.0703C275.611 87.4532 275.513 87.875 275.466 88.336L274.857 88.6875C274.857 87.9219 274.931 87.2032 275.079 86.5313C275.236 85.8594 275.474 85.2657 275.794 84.75C276.115 84.2266 276.521 83.8203 277.013 83.5313C277.513 83.2344 278.107 83.086 278.794 83.086C278.95 83.086 279.13 83.1055 279.333 83.1446C279.536 83.1758 279.677 83.211 279.755 83.25ZM45.6909 118.637C45.6909 118.324 45.6206 118.035 45.48 117.77C45.3472 117.496 45.0698 117.25 44.6479 117.031C44.2339 116.805 43.6089 116.609 42.7729 116.445C42.0698 116.297 41.4331 116.121 40.8628 115.918C40.3003 115.715 39.8198 115.469 39.4214 115.18C39.0308 114.891 38.73 114.551 38.519 114.16C38.3081 113.77 38.2026 113.313 38.2026 112.789C38.2026 112.289 38.312 111.816 38.5308 111.371C38.7573 110.926 39.0737 110.531 39.48 110.188C39.894 109.844 40.3901 109.574 40.9683 109.379C41.5464 109.184 42.1909 109.086 42.9019 109.086C43.9175 109.086 44.7847 109.266 45.5034 109.625C46.2222 109.984 46.7729 110.465 47.1558 111.066C47.5386 111.66 47.73 112.32 47.73 113.047H45.562C45.562 112.695 45.4565 112.355 45.2456 112.027C45.0425 111.691 44.7417 111.414 44.3433 111.195C43.9526 110.977 43.4722 110.867 42.9019 110.867C42.3003 110.867 41.812 110.961 41.437 111.148C41.0698 111.328 40.8003 111.559 40.6284 111.84C40.4644 112.121 40.3823 112.418 40.3823 112.73C40.3823 112.965 40.4214 113.176 40.4995 113.363C40.5854 113.543 40.7339 113.711 40.9448 113.867C41.1558 114.016 41.4526 114.156 41.8354 114.289C42.2183 114.422 42.7065 114.555 43.3003 114.688C44.3394 114.922 45.1948 115.203 45.8667 115.531C46.5386 115.859 47.0386 116.262 47.3667 116.738C47.6948 117.215 47.8589 117.793 47.8589 118.473C47.8589 119.027 47.7417 119.535 47.5073 119.996C47.2808 120.457 46.9487 120.855 46.5112 121.191C46.0815 121.52 45.5659 121.777 44.9644 121.965C44.3706 122.145 43.7026 122.234 42.9604 122.234C41.8433 122.234 40.8979 122.035 40.1245 121.637C39.3511 121.238 38.7651 120.723 38.3667 120.09C37.9683 119.457 37.769 118.789 37.769 118.086H39.9487C39.98 118.68 40.1519 119.152 40.4644 119.504C40.7769 119.848 41.1597 120.094 41.6128 120.242C42.0659 120.383 42.5151 120.453 42.9604 120.453C43.5542 120.453 44.0503 120.375 44.4487 120.219C44.855 120.063 45.1636 119.848 45.3745 119.574C45.5854 119.301 45.6909 118.988 45.6909 118.637ZM50.0123 115.801V115.531C50.0123 114.617 50.1451 113.77 50.4108 112.988C50.6764 112.199 51.0592 111.516 51.5592 110.938C52.0592 110.352 52.6647 109.898 53.3756 109.578C54.0865 109.25 54.8834 109.086 55.7662 109.086C56.6569 109.086 57.4576 109.25 58.1686 109.578C58.8873 109.898 59.4967 110.352 59.9967 110.938C60.5045 111.516 60.8912 112.199 61.1569 112.988C61.4225 113.77 61.5553 114.617 61.5553 115.531V115.801C61.5553 116.715 61.4225 117.563 61.1569 118.344C60.8912 119.125 60.5045 119.809 59.9967 120.395C59.4967 120.973 58.8912 121.426 58.1803 121.754C57.4772 122.074 56.6803 122.234 55.7897 122.234C54.899 122.234 54.0983 122.074 53.3873 121.754C52.6764 121.426 52.067 120.973 51.5592 120.395C51.0592 119.809 50.6764 119.125 50.4108 118.344C50.1451 117.563 50.0123 116.715 50.0123 115.801ZM52.1803 115.531V115.801C52.1803 116.434 52.2545 117.031 52.4029 117.594C52.5514 118.148 52.774 118.641 53.0709 119.07C53.3756 119.5 53.7545 119.84 54.2076 120.09C54.6608 120.332 55.1881 120.453 55.7897 120.453C56.3834 120.453 56.9029 120.332 57.3483 120.09C57.8014 119.84 58.1764 119.5 58.4733 119.07C58.7701 118.641 58.9928 118.148 59.1412 117.594C59.2975 117.031 59.3756 116.434 59.3756 115.801V115.531C59.3756 114.906 59.2975 114.316 59.1412 113.762C58.9928 113.199 58.7662 112.703 58.4615 112.273C58.1647 111.836 57.7897 111.492 57.3365 111.242C56.8912 110.992 56.3678 110.867 55.7662 110.867C55.1725 110.867 54.649 110.992 54.1959 111.242C53.7506 111.492 53.3756 111.836 53.0709 112.273C52.774 112.703 52.5514 113.199 52.4029 113.762C52.2545 114.316 52.1803 114.906 52.1803 115.531ZM66.5095 104V122H64.3298V104H66.5095ZM81.0117 109.32V110.984H74.1562V109.32H81.0117ZM76.4765 106.238H78.6445V118.859C78.6445 119.289 78.7109 119.613 78.8437 119.832C78.9765 120.051 79.1484 120.195 79.3594 120.266C79.5703 120.336 79.7969 120.371 80.039 120.371C80.2187 120.371 80.4062 120.355 80.6015 120.324C80.8047 120.285 80.957 120.254 81.0586 120.23L81.0703 122C80.8984 122.055 80.6719 122.105 80.3906 122.152C80.1172 122.207 79.7851 122.234 79.3945 122.234C78.8633 122.234 78.375 122.129 77.9297 121.918C77.4844 121.707 77.1289 121.355 76.8633 120.863C76.6054 120.363 76.4765 119.691 76.4765 118.848V106.238ZM82.6261 115.801V115.531C82.6261 114.617 82.7589 113.77 83.0245 112.988C83.2901 112.199 83.673 111.516 84.173 110.938C84.673 110.352 85.2784 109.898 85.9894 109.578C86.7003 109.25 87.4972 109.086 88.38 109.086C89.2706 109.086 90.0714 109.25 90.7823 109.578C91.5011 109.898 92.1105 110.352 92.6105 110.938C93.1183 111.516 93.505 112.199 93.7706 112.988C94.0362 113.77 94.169 114.617 94.169 115.531V115.801C94.169 116.715 94.0362 117.563 93.7706 118.344C93.505 119.125 93.1183 119.809 92.6105 120.395C92.1105 120.973 91.505 121.426 90.794 121.754C90.0909 122.074 89.294 122.234 88.4034 122.234C87.5128 122.234 86.712 122.074 86.0011 121.754C85.2901 121.426 84.6808 120.973 84.173 120.395C83.673 119.809 83.2901 119.125 83.0245 118.344C82.7589 117.563 82.6261 116.715 82.6261 115.801ZM84.794 115.531V115.801C84.794 116.434 84.8683 117.031 85.0167 117.594C85.1651 118.148 85.3878 118.641 85.6847 119.07C85.9894 119.5 86.3683 119.84 86.8214 120.09C87.2745 120.332 87.8019 120.453 88.4034 120.453C88.9972 120.453 89.5167 120.332 89.962 120.09C90.4151 119.84 90.7901 119.5 91.087 119.07C91.3839 118.641 91.6065 118.148 91.755 117.594C91.9112 117.031 91.9894 116.434 91.9894 115.801V115.531C91.9894 114.906 91.9112 114.316 91.755 113.762C91.6065 113.199 91.38 112.703 91.0753 112.273C90.7784 111.836 90.4034 111.492 89.9503 111.242C89.505 110.992 88.9815 110.867 88.38 110.867C87.7862 110.867 87.2628 110.992 86.8097 111.242C86.3644 111.492 85.9894 111.836 85.6847 112.273C85.3878 112.703 85.1651 113.199 85.0167 113.762C84.8683 114.316 84.794 114.906 84.794 115.531ZM98.9475 104V122H96.7678V104H98.9475ZM106.694 109.32L101.162 115.238L98.0686 118.449L97.8928 116.141L100.108 113.492L104.045 109.32H106.694ZM104.713 122L100.19 115.953L101.315 114.02L107.268 122H104.713ZM113.839 122.234C112.956 122.234 112.156 122.086 111.437 121.789C110.726 121.484 110.113 121.059 109.597 120.512C109.089 119.965 108.699 119.316 108.425 118.566C108.152 117.816 108.015 116.996 108.015 116.105V115.613C108.015 114.582 108.167 113.664 108.472 112.859C108.777 112.047 109.191 111.359 109.714 110.797C110.238 110.234 110.831 109.809 111.495 109.52C112.16 109.23 112.847 109.086 113.558 109.086C114.464 109.086 115.245 109.242 115.902 109.555C116.566 109.867 117.109 110.305 117.531 110.867C117.952 111.422 118.265 112.078 118.468 112.836C118.671 113.586 118.773 114.406 118.773 115.297V116.27H109.304V114.5H116.605V114.336C116.574 113.773 116.456 113.227 116.253 112.695C116.058 112.164 115.745 111.727 115.316 111.383C114.886 111.039 114.3 110.867 113.558 110.867C113.066 110.867 112.613 110.973 112.199 111.184C111.785 111.387 111.429 111.691 111.132 112.098C110.835 112.504 110.605 113 110.441 113.586C110.277 114.172 110.195 114.848 110.195 115.613V116.105C110.195 116.707 110.277 117.273 110.441 117.805C110.613 118.328 110.859 118.789 111.179 119.188C111.507 119.586 111.902 119.898 112.363 120.125C112.831 120.352 113.363 120.465 113.956 120.465C114.722 120.465 115.37 120.309 115.902 119.996C116.433 119.684 116.898 119.266 117.296 118.742L118.609 119.785C118.335 120.199 117.988 120.594 117.566 120.969C117.144 121.344 116.624 121.648 116.007 121.883C115.398 122.117 114.675 122.234 113.839 122.234ZM123.352 112.027V122H121.184V109.32H123.235L123.352 112.027ZM122.836 115.18L121.934 115.145C121.942 114.277 122.071 113.477 122.321 112.742C122.571 112 122.922 111.355 123.375 110.809C123.829 110.262 124.368 109.84 124.993 109.543C125.625 109.238 126.325 109.086 127.09 109.086C127.715 109.086 128.278 109.172 128.778 109.344C129.278 109.508 129.704 109.773 130.055 110.141C130.415 110.508 130.688 110.984 130.875 111.57C131.063 112.148 131.157 112.855 131.157 113.691V122H128.977V113.668C128.977 113.004 128.879 112.473 128.684 112.074C128.489 111.668 128.204 111.375 127.829 111.195C127.454 111.008 126.993 110.914 126.446 110.914C125.907 110.914 125.415 111.027 124.969 111.254C124.532 111.48 124.153 111.793 123.832 112.191C123.52 112.59 123.274 113.047 123.094 113.563C122.922 114.07 122.836 114.609 122.836 115.18ZM141.712 118.637C141.712 118.324 141.642 118.035 141.502 117.77C141.369 117.496 141.091 117.25 140.67 117.031C140.255 116.805 139.63 116.609 138.795 116.445C138.091 116.297 137.455 116.121 136.884 115.918C136.322 115.715 135.841 115.469 135.443 115.18C135.052 114.891 134.752 114.551 134.541 114.16C134.33 113.77 134.224 113.313 134.224 112.789C134.224 112.289 134.334 111.816 134.552 111.371C134.779 110.926 135.095 110.531 135.502 110.188C135.916 109.844 136.412 109.574 136.99 109.379C137.568 109.184 138.212 109.086 138.923 109.086C139.939 109.086 140.806 109.266 141.525 109.625C142.244 109.984 142.795 110.465 143.177 111.066C143.56 111.66 143.752 112.32 143.752 113.047H141.584C141.584 112.695 141.478 112.355 141.267 112.027C141.064 111.691 140.763 111.414 140.365 111.195C139.974 110.977 139.494 110.867 138.923 110.867C138.322 110.867 137.834 110.961 137.459 111.148C137.091 111.328 136.822 111.559 136.65 111.84C136.486 112.121 136.404 112.418 136.404 112.73C136.404 112.965 136.443 113.176 136.521 113.363C136.607 113.543 136.755 113.711 136.966 113.867C137.177 114.016 137.474 114.156 137.857 114.289C138.24 114.422 138.728 114.555 139.322 114.688C140.361 114.922 141.216 115.203 141.888 115.531C142.56 115.859 143.06 116.262 143.388 116.738C143.716 117.215 143.88 117.793 143.88 118.473C143.88 119.027 143.763 119.535 143.529 119.996C143.302 120.457 142.97 120.855 142.533 121.191C142.103 121.52 141.587 121.777 140.986 121.965C140.392 122.145 139.724 122.234 138.982 122.234C137.865 122.234 136.92 122.035 136.146 121.637C135.373 121.238 134.787 120.723 134.388 120.09C133.99 119.457 133.791 118.789 133.791 118.086H135.97C136.002 118.68 136.173 119.152 136.486 119.504C136.798 119.848 137.181 120.094 137.634 120.242C138.087 120.383 138.537 120.453 138.982 120.453C139.576 120.453 140.072 120.375 140.47 120.219C140.877 120.063 141.185 119.848 141.396 119.574C141.607 119.301 141.712 118.988 141.712 118.637ZM146.643 120.852C146.643 120.484 146.757 120.176 146.983 119.926C147.217 119.668 147.553 119.539 147.991 119.539C148.428 119.539 148.76 119.668 148.987 119.926C149.221 120.176 149.339 120.484 149.339 120.852C149.339 121.211 149.221 121.516 148.987 121.766C148.76 122.016 148.428 122.141 147.991 122.141C147.553 122.141 147.217 122.016 146.983 121.766C146.757 121.516 146.643 121.211 146.643 120.852Z" fill="black"/>
<rect x="36.6558" y="31" width="250.957" height="114" stroke="#E9E9EB"/>
<path d="M312 55.3874C312 41.9186 301.081 31 287.613 31V31V66.2976H312V55.3874Z" fill="#E9E9EB" stroke="#E9E9EB"/>
<rect width="24.3874" height="43.4048" transform="matrix(-1 0 0 1 312 66.2976)" fill="#E9E9EB" stroke="#E9E9EB"/>
<path d="M312 120.613C312 134.081 301.081 145 287.613 145V145V109.702H312V120.613Z" fill="#E9E9EB" stroke="#E9E9EB"/>
</svg>
