<svg width="201px" height="180px" viewBox="0 0 201 180" xmlns="http://www.w3.org/2000/svg" xmlns:xlink="http://www.w3.org/1999/xlink" class="logo"><title>58C60C5B-C448-41A7-BABF-19A01DB47E90</title><defs><linearGradient x1="13.3027523%" y1="93.8742642%" x2="148.290242%" y2="-68.7753173%" id="linearGradient-1"><stop stop-color="#D6B17B" offset="2%"></stop><stop stop-color="#F3EBDC" offset="54%"></stop><stop stop-color="#D9B785" offset="100%"></stop></linearGradient><linearGradient x1="44.3663015%" y1="95.9727569%" x2="68.3298786%" y2="-15.1761919%" id="linearGradient-2"><stop stop-color="#D6B17B" offset="2%"></stop><stop stop-color="#F3EBDC" offset="54%"></stop><stop stop-color="#D9B785" offset="100%"></stop></linearGradient><linearGradient x1="-48.9507821%" y1="181.515084%" x2="74.5516978%" y2="16.7687263%" id="linearGradient-3"><stop stop-color="#D6B17B" offset="2%"></stop><stop stop-color="#F3EBDC" offset="54%"></stop><stop stop-color="#D9B785" offset="100%"></stop></linearGradient><linearGradient x1="21.1562094%" y1="115.223983%" x2="81.6988141%" y2="-21.4605031%" id="linearGradient-4"><stop stop-color="#D6B17B" offset="2%"></stop><stop stop-color="#F3EBDC" offset="54%"></stop><stop stop-color="#D9B785" offset="100%"></stop></linearGradient><linearGradient x1="39.0064801%" y1="130.614863%" x2="55.6867318%" y2="-6.96417117%" id="linearGradient-5"><stop stop-color="#D6B17B" offset="2%"></stop><stop stop-color="#F3EBDC" offset="54%"></stop><stop stop-color="#D9B785" offset="100%"></stop></linearGradient><linearGradient x1="20.8865248%" y1="99.9305992%" x2="102.039007%" y2="-43.955791%" id="linearGradient-6"><stop stop-color="#D9B886" offset="20%"></stop><stop stop-color="#F3EBDC" offset="54%"></stop><stop stop-color="#D6B17A" offset="77%"></stop></linearGradient></defs><g id="Home" stroke="none" stroke-width="1" fill="none" fill-rule="evenodd"><g id="home" transform="translate(-49.000000, -72.000000)" fill-rule="nonzero"><g id="gold-new_E5" transform="translate(49.000000, 72.000000)"><path d="M152,109.041653 L150.623853,108 C139.175758,123.326855 121.140708,132.332886 102,132.280939 L102,133.999667 C121.682641,134.064026 140.231415,124.805215 152,109.041653 L152,109.041653 Z" id="Path" fill="url(#linearGradient-1)"></path><path d="M29.3426118,70 C29.3826056,33.7566828 58.756677,4.38724823 95,4.35297601 L95,0 C56.3400675,0 25,31.3400675 25,70 C25,108.659932 56.3400675,140 95,140 L95,135.657388 C58.7550004,135.617405 29.3825953,106.245 29.3426118,70 Z" id="Path" fill="url(#linearGradient-2)"></path><path d="M153.478634,39 L155,38.1183144 C143.49509,18.8878199 122.599419,7.06530988 100,7 L100,8.73225284 C121.975806,8.80004719 142.292953,20.2991121 153.478634,39 L153.478634,39 Z" id="Path" fill="url(#linearGradient-3)"></path><path d="M154,70.0103866 C154,40.1812738 129.833341,16 100.022256,16 L100.022256,19.4795153 C118.92279,19.4936731 136.231286,30.0735419 144.87149,46.8937419 C153.511695,63.713942 152.035266,83.9549303 141.045813,99.3415606 C130.056359,114.728191 111.396027,122.681227 92.6937393,119.949221 L92.4342309,121.714945 C64.9755088,119.091565 44.3642328,95.4351183 45.5106,67.8586791 C46.6569672,40.2822398 69.1604681,18.4202659 96.7420701,18.0877092 L96.7420701,16.3427582 C67.7840991,16.2796939 44.0068442,39.2326088 43.0310013,68.1917037 C42.0551585,97.1507985 64.2332658,121.654158 93.1297133,123.542989 C95.4361279,123.840992 97.7589831,123.99363 100.084538,124 C129.863194,123.965621 153.988566,99.8070682 154,70.0103866 Z" id="Path" fill="url(#linearGradient-4)"></path><path d="M154.793419,18 L152.73753,20.0709246 C165.821463,33.543633 173.133546,51.6507854 173.101113,70.4979382 C173.032431,93.4077333 162.248639,114.945031 144,128.618437 L145.757785,131 C164.733179,116.75407 175.938488,94.3368565 176,70.4979382 C176.028936,50.8764149 168.414571,32.0266031 154.793419,18 Z" id="Path" fill="url(#linearGradient-5)"></path><path d="M130,82.5625584 C123.35727,89.8937722 113.471631,88.4065831 113.471631,88.4065831 C109.695213,88.2285394 101.514716,84.0916402 101.514716,84.0916402 C100.343085,86.1862727 95.0498227,87.5058912 95.0498227,87.5058912 C88.8464539,82.918646 88.2187943,71.7961474 88.2187943,71.7961474 C89.0346243,70.4165649 90.5811681,69.6423934 92.1730496,69.8167197 C95.5833333,74.0059847 98.8157801,74.5924818 98.8157801,74.5924818 C105.824645,75.576959 111.222518,68.9265008 111.222518,68.9265008 C107.623936,70.8116701 103.042021,66.8318683 103.042021,66.8318683 C98.2822695,61.4381896 94.673227,64.5801384 94.673227,64.5801384 C92.5247404,66.0340288 90.2363309,67.2690322 87.8421986,68.2666916 C87.7585106,55.4999065 95.3950355,51.4467926 95.3950355,51.4467926 C105.468972,60.6841219 114.51773,59.7415373 120.83617,56.7881055 L121.88227,56.243501 C124.636825,54.771137 127.134572,52.8611615 129.278191,50.5879933 L128.880674,50.1062278 C119.308261,52.4509565 109.223438,49.3362761 102.634043,42 C101.190426,43.5290817 90.3214539,49.9177109 90.3214539,49.9177109 C87.8003546,41.7276978 80.7078014,44.6811296 80.7078014,44.6811296 C75.6083343,46.800503 71.9458835,51.3838922 71,56.8299981 C82.2351064,39.54928 86.4613475,51.792407 86.4613475,51.792407 C83.0092199,54.9343557 77.0464539,66.4548345 77.0464539,66.4548345 C73.0921986,65.8264447 72.464539,70.0366561 72.464539,70.0366561 C73.5189973,69.3253988 74.8392695,69.1327154 76.0526596,69.5129979 C72.464539,80.666916 76.5966312,88.2285394 76.5966312,88.2285394 C71.7427305,92.3654386 75.3413121,95.9682065 75.3413121,95.9682065 C73.7198582,92.8262577 78.395922,92.910043 78.395922,92.910043 L86.4822695,98 L96.8177305,91.559005 C98.1525438,93.0045437 99.6679294,94.2717675 101.326418,95.3293436 C102.629574,96.1600958 104.036514,96.8150836 105.510816,97.2773518 C106.638287,97.6361699 107.803959,97.8611392 108.983865,97.9476342 C110.531343,98.0878735 112.090811,97.8913735 113.555319,97.3716102 C114.381738,97.0888349 115.187234,96.7641668 115.971809,96.4185525 C117.424248,95.7685285 118.823362,95.005124 120.156206,94.135403 C121.32534,93.3652495 122.437124,92.5111904 123.482801,91.5799514 C124.394154,90.7687742 125.250374,89.8975629 126.045745,88.9721339 C126.71661,88.1993779 127.341846,87.3880734 127.918262,86.5423602 C128.368085,85.882551 128.786525,85.2122686 129.173582,84.5105667 C129.424645,84.0497475 129.665248,83.5889284 129.874468,83.1071629 C129.92643,82.9281156 129.96834,82.7462963 130,82.5625584 Z M85.791844,90.9410885 C85.791844,90.9410885 75.6342199,85.3588928 78.4691489,71.5028988 C78.4691489,71.5028988 81.7957447,60.3489807 87.9991135,55.0390825 C87.9468085,55.0286142 75.9062057,72.0370301 85.791844,90.9306153 L85.791844,90.9410885 Z" id="Shape" fill="url(#linearGradient-6)"></path><polygon id="Path" fill="#F1CD7E" points="9 177.507666 9 179 0 179 0 167 8.79834906 167 8.79834906 168.492334 1.78301887 168.492334 1.78301887 172.172061 8.02358491 172.172061 8.02358491 173.633731 1.78301887 173.633731 1.78301887 177.507666"></polygon><path d="M30.9769894,170.97899 C31.6964096,171.766203 32.0623617,172.80802 31.9912848,173.866553 L31.9912848,179 L30.3379834,179 L30.3379834,174.057052 C30.3900828,173.352994 30.1728955,172.655256 29.7294062,172.101931 C29.2774978,171.647717 28.6482984,171.409908 28.0051042,171.450224 C27.2691357,171.414373 26.5528614,171.691747 26.0373713,172.21222 C25.5155701,172.823092 25.2537826,173.610202 25.3070786,174.407972 L25.3070786,179 L23.6740632,179 L23.6740632,174.057052 C23.7261625,173.352994 23.5089753,172.655256 23.065486,172.101931 C22.6128288,171.648849 21.9841717,171.411246 21.3411839,171.450224 C20.6021739,171.41406 19.8826558,171.691261 19.3633081,172.21222 C18.8415069,172.823092 18.5797194,173.610202 18.6330155,174.407972 L18.6330155,179 L17,179 L17,170.086652 L18.5721577,170.086652 L18.5721577,171.420145 C18.8937154,170.95725 19.3399354,170.592572 19.8603128,170.367388 C20.4321034,170.119082 21.0514568,169.995953 21.6759014,170.006442 C22.3267444,169.993644 22.9708977,170.138201 23.5523477,170.427545 C24.0919238,170.693514 24.5322728,171.121776 24.8100739,171.650749 C25.1628221,171.126082 25.6538221,170.7066 26.2300874,170.437572 C26.8646394,170.144182 27.5582113,169.996779 28.258678,170.006442 C29.2615481,169.947165 30.2448197,170.298957 30.9769894,170.97899 L30.9769894,170.97899 Z" id="Path" fill="#F1CD7E"></path><path d="M40.2844227,167.839535 C40.0990814,167.642168 39.996005,167.367213 40.0001186,167.081157 C39.9998914,166.792948 40.1021637,166.516451 40.2844227,166.31253 C40.688423,165.895823 41.3111138,165.895823 41.7151141,166.31253 C41.8981089,166.507457 42.0009787,166.778153 41.9994182,167.06066 C42.0087592,167.353786 41.9052581,167.637336 41.7151141,167.839535 C41.5259414,168.050913 41.2671783,168.165835 40.9997684,168.157234 C40.7329291,168.162285 40.475361,168.047894 40.2844227,167.839535 L40.2844227,167.839535 Z M40.2844227,169.889207 L41.7609696,169.889207 L41.7609696,179 L40.2660805,179 L40.2844227,169.889207 Z" id="Shape" fill="#F1CD7E"></path><polygon id="Path" fill="#F1CD7E" points="50 166 52 166 52 179 50 179"></polygon><polygon id="Path" fill="#F1CD7E" points="60 166 62 166 62 179 60 179"></polygon><path d="M70.2845847,167.839535 C70.0992609,167.642168 69.9961942,167.367213 70.0003074,167.081157 C69.993601,166.791561 70.0968782,166.512321 70.2845847,166.31253 C70.6885468,165.895823 71.3111789,165.895823 71.715141,166.31253 C71.8981185,166.507457 72.0009786,166.778153 71.9994183,167.06066 C72.0087583,167.353786 71.9052671,167.637336 71.715141,167.839535 C71.5259862,168.050913 71.2672475,168.165835 70.9998628,168.157234 C70.7330487,168.162285 70.475505,168.047894 70.2845847,167.839535 L70.2845847,167.839535 Z M70.2845847,169.889207 L71.6968006,169.889207 L71.6968006,179 L70.2295633,179 L70.2845847,169.889207 Z" id="Shape" fill="#F1CD7E"></path><path d="M82.4353004,178.422665 C81.686177,178.052445 81.0670594,177.494482 80.6500552,176.813759 C80.2084818,176.107319 79.9841102,175.304099 80.0008752,174.489783 C79.9867942,173.675757 80.2109862,172.87318 80.6500552,172.165808 C81.0705497,171.490076 81.6890441,170.936114 82.4353004,170.566833 C83.2281815,170.182464 84.113829,169.987766 85.0103812,170.000736 C85.9036468,169.986417 86.7861585,170.181243 87.5746424,170.566833 C88.3162043,170.941949 88.9331533,171.494527 89.3598875,172.165808 C89.7908178,172.875749 90.0109547,173.677166 89.9982479,174.489783 C90.0215244,175.296622 89.8125267,176.094822 89.3923465,176.803828 C88.9693537,177.480322 88.3517296,178.03694 87.6071014,178.412734 C86.8224138,178.80944 85.9385659,179.011408 85.0428402,178.998694 C84.133869,179.018168 83.23509,178.81962 82.4353004,178.422665 L82.4353004,178.422665 Z M86.6657903,177.220951 C87.1547012,176.958095 87.5552604,176.576671 87.8234948,176.118553 C88.1122012,175.61721 88.2573994,175.056752 88.2454618,174.489783 C88.2574646,173.925974 88.1122083,173.368711 87.8234948,172.870945 C87.5608288,172.411673 87.1586822,172.032187 86.6657903,171.778478 C85.6302671,171.275258 84.3904953,171.275258 83.3549721,171.778478 C82.8614189,172.034673 82.456451,172.413282 82.186448,172.870945 C81.8977345,173.368711 81.7524782,173.925974 81.764481,174.489783 C81.7525434,175.056752 81.8977416,175.61721 82.186448,176.118553 C82.4641299,176.573562 82.8670646,176.953695 83.3549721,177.220951 C84.3870675,177.736684 85.6336949,177.736684 86.6657903,177.220951 L86.6657903,177.220951 Z" id="Shape" fill="#F1CD7E"></path><path d="M104.924927,170.945887 C105.683097,171.731809 106.068035,172.777303 105.990106,173.838917 L105.990106,179 L104.275168,179 L104.275168,174.030441 C104.328196,173.319475 104.091923,172.616231 103.614758,172.064794 C103.106529,171.606381 102.419528,171.36897 101.71874,171.409578 C100.906837,171.366775 100.112462,171.64412 99.5244728,172.175677 C98.9529713,172.779164 98.6613264,173.574469 98.7149372,174.38325 L98.7149372,179 L97,179 L97,170.038666 L98.6510265,170.038666 L98.6510265,171.389418 C99.0075949,170.936723 99.490964,170.587538 100.04641,170.381394 C100.681664,170.122556 101.368101,169.995384 102.059597,170.008425 C103.109406,169.941108 104.143218,170.279345 104.924927,170.945887 Z" id="Path" fill="#F1CD7E"></path><path d="M114.681983,178.696136 C114.075845,178.554766 113.504732,178.305799 113,177.962903 L113.713246,176.694607 C114.175985,176.995577 114.69094,177.220148 115.235547,177.358481 C115.818022,177.527623 116.424467,177.614464 117.034629,177.616103 C118.535639,177.616103 119.280821,177.209852 119.280821,176.417168 C119.292726,176.174159 119.182573,175.93981 118.982748,175.78302 C118.756557,175.620272 118.495009,175.505313 118.216275,175.446129 C117.918202,175.376769 117.481739,175.287592 116.928175,175.208324 C116.298705,175.117936 115.676357,174.988842 115.065219,174.82189 C114.589053,174.681556 114.159983,174.428963 113.8197,174.088657 C113.456233,173.685342 113.273283,173.167391 113.308718,172.642008 C113.289293,171.877147 113.690739,171.155988 114.373264,170.729656 C115.223871,170.209219 116.231065,169.955754 117.247538,170.006332 C117.885667,170.007602 118.521505,170.077424 119.14243,170.214411 C119.689902,170.33321 120.214229,170.530428 120.696667,170.799016 L119.962131,172.057403 C119.140866,171.586001 118.190912,171.34517 117.226248,171.363804 C116.649765,171.329791 116.074548,171.446481 115.565556,171.700695 C115.215825,171.874015 114.998446,172.213779 115.001346,172.582556 C114.989453,172.841153 115.107489,173.090182 115.32071,173.256338 C115.554095,173.432503 115.82691,173.557775 116.11912,173.622955 C116.427838,173.702223 116.874947,173.7914 117.449802,173.890486 C118.072339,173.980548 118.687629,174.109653 119.291467,174.27692 C119.7536,174.410666 120.168917,174.656975 120.494404,174.990336 C120.853828,175.375751 121.033832,175.878384 120.99474,176.387442 C121.016563,177.150127 120.614119,177.869332 119.930194,178.289885 C119.031838,178.799209 117.989283,179.044396 116.93882,178.993392 C116.17486,178.999111 115.414242,178.898927 114.681983,178.696136 L114.681983,178.696136 Z" id="Path" fill="#F1CD7E"></path><polygon id="Path" fill="#F1CD7E" points="139 167 139 179 137.636816 179 130.671642 170.045997 130.671642 179 129 179 129 167 130.363184 167 137.378109 175.943782 137.378109 167"></polygon><polygon id="Path" fill="#F1CD7E" points="149.815217 168.492334 149.815217 172.672913 156.217391 172.672913 156.217391 174.144804 149.815217 174.144804 149.815217 179 148 179 148 167 157 167 157 168.492334"></polygon><polygon id="Path" fill="#F1CD7E" points="166.119464 168.492334 162 168.492334 162 167 172 167 172 168.492334 167.880536 168.492334 167.880536 179 166.170958 179"></polygon><path d="M195.285992,176.661453 C197.993191,176.661453 200.775292,175.716201 201,171 C201,171 199.116732,175.203352 195.5,175.203352 C195.5,175.203352 191.316148,174.338547 190,180 C190,180 192.589494,176.661453 195.285992,176.661453 Z" id="Path" fill="#F1CD7E"></path><path d="M189.987378,173 C196.486613,170.606218 195.991337,167.466321 195.991337,167.466321 C194.262925,167.911917 192.029128,168.284974 192.029128,168.284974 L190.007593,165 L187.986058,168.284974 C187.986058,168.284974 185.752262,167.911917 184.023849,167.466321 C183.983419,167.466321 183.488142,170.658031 189.987378,173 Z" id="Path" fill="#F1CD7E"></path><path d="M184.719145,176.661453 C182.014577,176.661453 179.23518,175.716201 179,171 C179,171 180.892128,175.203352 184.505345,175.203352 C184.505345,175.203352 188.674441,174.338547 190,180 C190,180 187.413022,176.661453 184.719145,176.661453 Z" id="Path" fill="#F1CD7E"></path></g></g></g></svg>