<svg width="117" height="40" viewBox="0 0 117 40" fill="none" xmlns="http://www.w3.org/2000/svg"><path d="M113.782 29.2941V14.0244H116.929V29.2941H113.782ZM107.33 29.2941L105.626 25.2324H101.264L102.364 22.4608H104.465L102.398 17.5464L98.8167 26.3148L97.6004 29.2941H94.345L100.848 14.0244H104.079L110.722 29.2941H107.33ZM65.3764 29.2941V14.0244H75.5703V16.7758H68.504V20.1489H75.2146V22.9938H68.4716V29.2941H65.3764ZM53.5983 29.2941V23.9497L47.7178 14.0244H51.1357L55.2241 21.0053L59.0687 14.0244H62.3784L56.7448 23.9486V29.2941H53.5983ZM79.0072 29.2941V14.0244H85.0496C90.0995 14.0244 92.6586 16.4565 92.6586 21.2532C92.6586 26.5889 90.0995 29.2935 85.0496 29.2935L79.0072 29.2941ZM82.1549 26.5224H85.0496C88.0513 26.5224 89.5115 24.7997 89.5115 21.2539C89.5115 18.2546 88.0507 16.7973 85.0496 16.7973H82.1543L82.1549 26.5224Z" fill="#1E2D48"></path><path d="M22.1598 34.6612H33.8663C30.6569 37.6789 26.5426 39.555 22.1598 39.9995V34.6612ZM6.33457 34.6612H18.0433V39.9995C13.6595 39.5562 9.5442 37.6799 6.33457 34.6612ZM22.1598 30.5548V25.7812H39.3686C38.8665 27.4602 38.1445 29.0653 37.2212 30.5548H22.1598ZM2.97681 30.5548C2.05699 29.0643 1.33721 27.4594 0.835938 25.7812H18.0447V30.5548H2.97681Z" fill="#65C4FF"></path><path d="M22.1592 21.6746V18.6589L34.6402 6.20439C38.2147 9.92706 40.2082 14.8895 40.2026 20.0505C40.2026 20.5944 40.1782 21.1371 40.1353 21.6725L22.1592 21.6746ZM0.0658059 21.6746C0.0228591 21.1392 1.20896e-05 20.5973 1.20896e-05 20.0525C-0.0056632 14.8921 1.98699 9.92982 5.56016 6.20649L18.0434 18.6612V21.6767L0.0658059 21.6746ZM8.70314 3.53525C12.055 1.22604 16.031 -0.00710224 20.1013 3.07713e-05C24.1715 -0.0065576 28.1472 1.22653 31.4993 3.53525L20.1013 14.9047L8.70314 3.53525Z" fill="#1866ED"></path></svg>