<svg width="71" height="130" viewBox="0 0 71 130" fill="none" xmlns="http://www.w3.org/2000/svg">
<path d="M1 43L1.5 45L2 46V43H1Z" fill="#7048D9" stroke="white" stroke-width="0.1"/>
<path d="M33.08 37.413L0.793043 37.4505C0.789182 34.1305 0.924008 31.1147 1.19752 28.403C1.47103 25.6914 2.02144 23.1731 2.84873 20.8481C4.00694 17.5821 5.58056 14.6753 7.5696 12.1276C9.5587 9.63529 11.9079 7.52989 14.6173 5.81141C17.2713 4.14832 20.2025 2.87224 23.4108 1.98318C26.6191 1.09411 29.9939 0.647522 33.5353 0.643403C38.4046 0.63774 42.8599 1.43489 46.9011 3.03486C50.8869 4.63489 54.3202 6.8719 57.2009 9.74589C60.0816 12.6752 62.3267 16.1586 63.936 20.1961C65.5455 24.2889 66.353 28.7976 66.3588 33.7223C66.3644 38.5916 65.5949 43.0468 64.0503 47.0879C62.4504 51.1845 60.2135 54.6731 57.3395 57.5538C54.4101 60.4345 50.8991 62.6796 46.8063 64.289C42.7135 65.8984 38.1494 66.7061 33.1141 66.7119C26.5848 66.7195 20.8561 65.3152 15.9282 62.4989C11.0002 59.6827 7.09416 55.3159 4.20994 49.3985L19.6405 42.9896C21.0832 46.4186 22.9674 48.8787 25.2931 50.37C27.5635 51.8614 30.165 52.6054 33.0977 52.6019C35.5324 52.5991 37.7451 52.1262 39.736 51.1832C41.727 50.2956 43.4408 48.9933 44.8775 47.2762C46.2589 45.6146 47.3632 43.5937 48.1905 41.2134C48.9624 38.8332 49.3466 36.1767 49.3432 33.244C49.3401 30.588 49.0052 28.1261 48.3386 25.8582C47.6166 23.5904 46.563 21.6273 45.1777 19.9689C43.7925 18.3105 42.0756 17.0121 40.0272 16.0739C37.9788 15.1909 35.599 14.751 32.8877 14.7542C31.283 14.756 29.7339 14.9238 28.2403 15.2576C26.7467 15.6466 25.4194 16.2292 24.2583 17.0052C23.0419 17.8366 22.0471 18.8891 21.274 20.1627C20.5008 21.4362 19.9769 22.9862 19.7024 24.8125L33.0654 24.797L33.08 37.413Z" fill="#7048D9"/>
<path d="M26.0063 67.4792L33.0696 87.551L40.0862 67.4629L26.0063 67.4792ZM21.8324 55.5641L44.2324 55.538L47.8202 45.0538L64.5402 45.0344L41.6504 105.381L24.5304 105.401L1.50022 45.1077L18.2202 45.0883L21.8324 55.5641Z" fill="#7048D9"/>
<rect x="2" y="43" width="19" height="3" fill="#7048D9"/>
<circle cx="31.5" cy="19.5" r="0.4" stroke="white" stroke-width="0.2"/>
<circle cx="26.5" cy="23.5" r="0.4" stroke="white" stroke-width="0.2"/>
<circle cx="39.5" cy="20.5" r="0.4" stroke="white" stroke-width="0.2"/>
<circle cx="45.5" cy="29.5" r="0.4" stroke="white" stroke-width="0.2"/>
<circle cx="41.5" cy="29.5" r="0.4" stroke="white" stroke-width="0.2"/>
<circle cx="36.5" cy="28.5" r="0.4" stroke="white" stroke-width="0.2"/>
<circle cx="44.5" cy="34.5" r="0.4" stroke="white" stroke-width="0.2"/>
<circle cx="29.5" cy="42.5" r="0.4" stroke="white" stroke-width="0.2"/>
<circle cx="24.5" cy="41.5" r="0.4" stroke="white" stroke-width="0.2"/>
<circle cx="40.5" cy="41.5" r="0.4" stroke="white" stroke-width="0.2"/>
<circle cx="34" cy="43" r="0.9" stroke="white" stroke-width="0.2"/>
<circle cx="38" cy="37" r="0.9" stroke="white" stroke-width="0.2"/>
</svg>
