<svg width="72" height="104" viewBox="0 0 72 104" fill="none" xmlns="http://www.w3.org/2000/svg">
<g filter="url(#filter0_bii_256_153)">
<path d="M36 52C36 47.7565 37.6857 43.6869 40.6863 40.6863C43.6869 37.6857 47.7565 36 52 36C56.2435 36 60.3131 37.6857 63.3137 40.6863C66.3143 43.6869 68 47.7565 68 52C68 56.2435 66.3143 60.3131 63.3137 63.3137C60.3131 66.3143 56.2435 68 52 68C47.7565 68 43.6869 66.3143 40.6863 63.3137C37.6857 60.3131 36 56.2435 36 52Z" fill="white" fill-opacity="0.2"/>
</g>
<g filter="url(#filter1_bii_256_153)">
<path d="M4 84C4 79.7565 5.68571 75.6869 8.68629 72.6863C11.6869 69.6857 15.7565 68 20 68H36V84C36 88.2435 34.3143 92.3131 31.3137 95.3137C28.3131 98.3143 24.2435 100 20 100C15.7565 100 11.6869 98.3143 8.68629 95.3137C5.68571 92.3131 4 88.2435 4 84Z" fill="white" fill-opacity="0.2"/>
</g>
<g filter="url(#filter2_bii_256_153)">
<path d="M36 4V36H52C56.2435 36 60.3131 34.3143 63.3137 31.3137C66.3143 28.3131 68 24.2435 68 20C68 15.7565 66.3143 11.6869 63.3137 8.68629C60.3131 5.68571 56.2435 4 52 4L36 4Z" fill="white" fill-opacity="0.2"/>
</g>
<g filter="url(#filter3_bii_256_153)">
<path d="M4 20C4 24.2435 5.68571 28.3131 8.68629 31.3137C11.6869 34.3143 15.7565 36 20 36H36V4H20C15.7565 4 11.6869 5.68571 8.68629 8.68629C5.68571 11.6869 4 15.7565 4 20Z" fill="white" fill-opacity="0.2"/>
</g>
<g filter="url(#filter4_bii_256_153)">
<path d="M4 52C4 56.2435 5.68571 60.3131 8.68629 63.3137C11.6869 66.3143 15.7565 68 20 68H36V36H20C15.7565 36 11.6869 37.6857 8.68629 40.6863C5.68571 43.6869 4 47.7565 4 52Z" fill="white" fill-opacity="0.2"/>
</g>
<g filter="url(#filter5_f_256_153)">
<path d="M36 52C36 47.7565 37.6857 43.6869 40.6863 40.6863C43.6869 37.6857 47.7565 36 52 36C56.2435 36 60.3131 37.6857 63.3137 40.6863C66.3143 43.6869 68 47.7565 68 52C68 56.2435 66.3143 60.3131 63.3137 63.3137C60.3131 66.3143 56.2435 68 52 68C47.7565 68 43.6869 66.3143 40.6863 63.3137C37.6857 60.3131 36 56.2435 36 52V52Z" stroke="url(#paint0_linear_256_153)" stroke-width="4"/>
<path d="M4 84C4 79.7565 5.68571 75.6869 8.68629 72.6863C11.6869 69.6857 15.7565 68 20 68H36V84C36 88.2435 34.3143 92.3131 31.3137 95.3137C28.3131 98.3143 24.2435 100 20 100C15.7565 100 11.6869 98.3143 8.68629 95.3137C5.68571 92.3131 4 88.2435 4 84Z" stroke="url(#paint1_linear_256_153)" stroke-width="4"/>
<path d="M4 52C4 56.2435 5.68571 60.3131 8.68629 63.3137C11.6869 66.3143 15.7565 68 20 68H36V36H20C15.7565 36 11.6869 37.6857 8.68629 40.6863C5.68571 43.6869 4 47.7565 4 52Z" stroke="url(#paint2_linear_256_153)" stroke-width="4"/>
<path d="M4 20C4 24.2435 5.68571 28.3131 8.68629 31.3137C11.6869 34.3143 15.7565 36 20 36H36V4H20C15.7565 4 11.6869 5.68571 8.68629 8.68629C5.68571 11.6869 4 15.7565 4 20Z" stroke="url(#paint3_linear_256_153)" stroke-width="4"/>
<path d="M36 4V36H52C56.2435 36 60.3131 34.3143 63.3137 31.3137C66.3143 28.3131 68 24.2435 68 20C68 15.7565 66.3143 11.6869 63.3137 8.68629C60.3131 5.68571 56.2435 4 52 4L36 4Z" stroke="url(#paint4_linear_256_153)" stroke-width="4"/>
</g>
<path d="M36 52C36 47.7565 37.6857 43.6869 40.6863 40.6863C43.6869 37.6857 47.7565 36 52 36C56.2435 36 60.3131 37.6857 63.3137 40.6863C66.3143 43.6869 68 47.7565 68 52C68 56.2435 66.3143 60.3131 63.3137 63.3137C60.3131 66.3143 56.2435 68 52 68C47.7565 68 43.6869 66.3143 40.6863 63.3137C37.6857 60.3131 36 56.2435 36 52V52Z" stroke="url(#paint5_linear_256_153)" stroke-width="4"/>
<path d="M4 84C4 79.7565 5.68571 75.6869 8.68629 72.6863C11.6869 69.6857 15.7565 68 20 68H36V84C36 88.2435 34.3143 92.3131 31.3137 95.3137C28.3131 98.3143 24.2435 100 20 100C15.7565 100 11.6869 98.3143 8.68629 95.3137C5.68571 92.3131 4 88.2435 4 84Z" stroke="url(#paint6_linear_256_153)" stroke-width="4"/>
<path d="M4 52C4 56.2435 5.68571 60.3131 8.68629 63.3137C11.6869 66.3143 15.7565 68 20 68H36V36H20C15.7565 36 11.6869 37.6857 8.68629 40.6863C5.68571 43.6869 4 47.7565 4 52Z" stroke="url(#paint7_linear_256_153)" stroke-width="4"/>
<path d="M4 20C4 24.2435 5.68571 28.3131 8.68629 31.3137C11.6869 34.3143 15.7565 36 20 36H36V4H20C15.7565 4 11.6869 5.68571 8.68629 8.68629C5.68571 11.6869 4 15.7565 4 20Z" stroke="url(#paint8_linear_256_153)" stroke-width="4"/>
<path d="M36 4V36H52C56.2435 36 60.3131 34.3143 63.3137 31.3137C66.3143 28.3131 68 24.2435 68 20C68 15.7565 66.3143 11.6869 63.3137 8.68629C60.3131 5.68571 56.2435 4 52 4L36 4Z" stroke="url(#paint9_linear_256_153)" stroke-width="4"/>
<defs>
<filter id="filter0_bii_256_153" x="32" y="32" width="40" height="40" filterUnits="userSpaceOnUse" color-interpolation-filters="sRGB">
<feFlood flood-opacity="0" result="BackgroundImageFix"/>
<feGaussianBlur in="BackgroundImageFix" stdDeviation="2"/>
<feComposite in2="SourceAlpha" operator="in" result="effect1_backgroundBlur_256_153"/>
<feBlend mode="normal" in="SourceGraphic" in2="effect1_backgroundBlur_256_153" result="shape"/>
<feColorMatrix in="SourceAlpha" type="matrix" values="0 0 0 0 0 0 0 0 0 0 0 0 0 0 0 0 0 0 127 0" result="hardAlpha"/>
<feOffset dy="-4"/>
<feGaussianBlur stdDeviation="2"/>
<feComposite in2="hardAlpha" operator="arithmetic" k2="-1" k3="1"/>
<feColorMatrix type="matrix" values="0 0 0 0 1 0 0 0 0 1 0 0 0 0 1 0 0 0 0.05 0"/>
<feBlend mode="normal" in2="shape" result="effect2_innerShadow_256_153"/>
<feColorMatrix in="SourceAlpha" type="matrix" values="0 0 0 0 0 0 0 0 0 0 0 0 0 0 0 0 0 0 127 0" result="hardAlpha"/>
<feOffset dx="-4" dy="-4"/>
<feGaussianBlur stdDeviation="2"/>
<feComposite in2="hardAlpha" operator="arithmetic" k2="-1" k3="1"/>
<feColorMatrix type="matrix" values="0 0 0 0 1 0 0 0 0 1 0 0 0 0 1 0 0 0 0.05 0"/>
<feBlend mode="normal" in2="effect2_innerShadow_256_153" result="effect3_innerShadow_256_153"/>
</filter>
<filter id="filter1_bii_256_153" x="0" y="64" width="40" height="40" filterUnits="userSpaceOnUse" color-interpolation-filters="sRGB">
<feFlood flood-opacity="0" result="BackgroundImageFix"/>
<feGaussianBlur in="BackgroundImageFix" stdDeviation="2"/>
<feComposite in2="SourceAlpha" operator="in" result="effect1_backgroundBlur_256_153"/>
<feBlend mode="normal" in="SourceGraphic" in2="effect1_backgroundBlur_256_153" result="shape"/>
<feColorMatrix in="SourceAlpha" type="matrix" values="0 0 0 0 0 0 0 0 0 0 0 0 0 0 0 0 0 0 127 0" result="hardAlpha"/>
<feOffset dy="-4"/>
<feGaussianBlur stdDeviation="2"/>
<feComposite in2="hardAlpha" operator="arithmetic" k2="-1" k3="1"/>
<feColorMatrix type="matrix" values="0 0 0 0 1 0 0 0 0 1 0 0 0 0 1 0 0 0 0.05 0"/>
<feBlend mode="normal" in2="shape" result="effect2_innerShadow_256_153"/>
<feColorMatrix in="SourceAlpha" type="matrix" values="0 0 0 0 0 0 0 0 0 0 0 0 0 0 0 0 0 0 127 0" result="hardAlpha"/>
<feOffset dx="-4" dy="-4"/>
<feGaussianBlur stdDeviation="2"/>
<feComposite in2="hardAlpha" operator="arithmetic" k2="-1" k3="1"/>
<feColorMatrix type="matrix" values="0 0 0 0 1 0 0 0 0 1 0 0 0 0 1 0 0 0 0.05 0"/>
<feBlend mode="normal" in2="effect2_innerShadow_256_153" result="effect3_innerShadow_256_153"/>
</filter>
<filter id="filter2_bii_256_153" x="32" y="0" width="40" height="40" filterUnits="userSpaceOnUse" color-interpolation-filters="sRGB">
<feFlood flood-opacity="0" result="BackgroundImageFix"/>
<feGaussianBlur in="BackgroundImageFix" stdDeviation="2"/>
<feComposite in2="SourceAlpha" operator="in" result="effect1_backgroundBlur_256_153"/>
<feBlend mode="normal" in="SourceGraphic" in2="effect1_backgroundBlur_256_153" result="shape"/>
<feColorMatrix in="SourceAlpha" type="matrix" values="0 0 0 0 0 0 0 0 0 0 0 0 0 0 0 0 0 0 127 0" result="hardAlpha"/>
<feOffset dy="-4"/>
<feGaussianBlur stdDeviation="2"/>
<feComposite in2="hardAlpha" operator="arithmetic" k2="-1" k3="1"/>
<feColorMatrix type="matrix" values="0 0 0 0 1 0 0 0 0 1 0 0 0 0 1 0 0 0 0.05 0"/>
<feBlend mode="normal" in2="shape" result="effect2_innerShadow_256_153"/>
<feColorMatrix in="SourceAlpha" type="matrix" values="0 0 0 0 0 0 0 0 0 0 0 0 0 0 0 0 0 0 127 0" result="hardAlpha"/>
<feOffset dx="-4" dy="-4"/>
<feGaussianBlur stdDeviation="2"/>
<feComposite in2="hardAlpha" operator="arithmetic" k2="-1" k3="1"/>
<feColorMatrix type="matrix" values="0 0 0 0 1 0 0 0 0 1 0 0 0 0 1 0 0 0 0.05 0"/>
<feBlend mode="normal" in2="effect2_innerShadow_256_153" result="effect3_innerShadow_256_153"/>
</filter>
<filter id="filter3_bii_256_153" x="0" y="0" width="40" height="40" filterUnits="userSpaceOnUse" color-interpolation-filters="sRGB">
<feFlood flood-opacity="0" result="BackgroundImageFix"/>
<feGaussianBlur in="BackgroundImageFix" stdDeviation="2"/>
<feComposite in2="SourceAlpha" operator="in" result="effect1_backgroundBlur_256_153"/>
<feBlend mode="normal" in="SourceGraphic" in2="effect1_backgroundBlur_256_153" result="shape"/>
<feColorMatrix in="SourceAlpha" type="matrix" values="0 0 0 0 0 0 0 0 0 0 0 0 0 0 0 0 0 0 127 0" result="hardAlpha"/>
<feOffset dy="-4"/>
<feGaussianBlur stdDeviation="2"/>
<feComposite in2="hardAlpha" operator="arithmetic" k2="-1" k3="1"/>
<feColorMatrix type="matrix" values="0 0 0 0 1 0 0 0 0 1 0 0 0 0 1 0 0 0 0.05 0"/>
<feBlend mode="normal" in2="shape" result="effect2_innerShadow_256_153"/>
<feColorMatrix in="SourceAlpha" type="matrix" values="0 0 0 0 0 0 0 0 0 0 0 0 0 0 0 0 0 0 127 0" result="hardAlpha"/>
<feOffset dx="-4" dy="-4"/>
<feGaussianBlur stdDeviation="2"/>
<feComposite in2="hardAlpha" operator="arithmetic" k2="-1" k3="1"/>
<feColorMatrix type="matrix" values="0 0 0 0 1 0 0 0 0 1 0 0 0 0 1 0 0 0 0.05 0"/>
<feBlend mode="normal" in2="effect2_innerShadow_256_153" result="effect3_innerShadow_256_153"/>
</filter>
<filter id="filter4_bii_256_153" x="0" y="32" width="40" height="40" filterUnits="userSpaceOnUse" color-interpolation-filters="sRGB">
<feFlood flood-opacity="0" result="BackgroundImageFix"/>
<feGaussianBlur in="BackgroundImageFix" stdDeviation="2"/>
<feComposite in2="SourceAlpha" operator="in" result="effect1_backgroundBlur_256_153"/>
<feBlend mode="normal" in="SourceGraphic" in2="effect1_backgroundBlur_256_153" result="shape"/>
<feColorMatrix in="SourceAlpha" type="matrix" values="0 0 0 0 0 0 0 0 0 0 0 0 0 0 0 0 0 0 127 0" result="hardAlpha"/>
<feOffset dy="-4"/>
<feGaussianBlur stdDeviation="2"/>
<feComposite in2="hardAlpha" operator="arithmetic" k2="-1" k3="1"/>
<feColorMatrix type="matrix" values="0 0 0 0 1 0 0 0 0 1 0 0 0 0 1 0 0 0 0.05 0"/>
<feBlend mode="normal" in2="shape" result="effect2_innerShadow_256_153"/>
<feColorMatrix in="SourceAlpha" type="matrix" values="0 0 0 0 0 0 0 0 0 0 0 0 0 0 0 0 0 0 127 0" result="hardAlpha"/>
<feOffset dx="-4" dy="-4"/>
<feGaussianBlur stdDeviation="2"/>
<feComposite in2="hardAlpha" operator="arithmetic" k2="-1" k3="1"/>
<feColorMatrix type="matrix" values="0 0 0 0 1 0 0 0 0 1 0 0 0 0 1 0 0 0 0.05 0"/>
<feBlend mode="normal" in2="effect2_innerShadow_256_153" result="effect3_innerShadow_256_153"/>
</filter>
<filter id="filter5_f_256_153" x="0" y="0" width="72" height="104" filterUnits="userSpaceOnUse" color-interpolation-filters="sRGB">
<feFlood flood-opacity="0" result="BackgroundImageFix"/>
<feBlend mode="normal" in="SourceGraphic" in2="BackgroundImageFix" result="shape"/>
<feGaussianBlur stdDeviation="1" result="effect1_foregroundBlur_256_153"/>
</filter>
<linearGradient id="paint0_linear_256_153" x1="52" y1="36" x2="52" y2="68" gradientUnits="userSpaceOnUse">
<stop offset="0.494792" stop-color="#A329FF"/>
<stop offset="1" stop-color="#E662FF"/>
</linearGradient>
<linearGradient id="paint1_linear_256_153" x1="20" y1="68" x2="20" y2="100" gradientUnits="userSpaceOnUse">
<stop offset="0.494792" stop-color="#A329FF"/>
<stop offset="1" stop-color="#E662FF"/>
</linearGradient>
<linearGradient id="paint2_linear_256_153" x1="20" y1="36" x2="20" y2="68" gradientUnits="userSpaceOnUse">
<stop offset="0.494792" stop-color="#A329FF"/>
<stop offset="1" stop-color="#E662FF"/>
</linearGradient>
<linearGradient id="paint3_linear_256_153" x1="20" y1="4" x2="20" y2="36" gradientUnits="userSpaceOnUse">
<stop offset="0.494792" stop-color="#A329FF"/>
<stop offset="1" stop-color="#E662FF"/>
</linearGradient>
<linearGradient id="paint4_linear_256_153" x1="52" y1="4" x2="52" y2="36" gradientUnits="userSpaceOnUse">
<stop offset="0.494792" stop-color="#A329FF"/>
<stop offset="1" stop-color="#E662FF"/>
</linearGradient>
<linearGradient id="paint5_linear_256_153" x1="52" y1="36" x2="52" y2="68" gradientUnits="userSpaceOnUse">
<stop offset="0.494792" stop-color="#A329FF"/>
<stop offset="1" stop-color="#E662FF"/>
</linearGradient>
<linearGradient id="paint6_linear_256_153" x1="20" y1="68" x2="20" y2="100" gradientUnits="userSpaceOnUse">
<stop offset="0.494792" stop-color="#A329FF"/>
<stop offset="1" stop-color="#E662FF"/>
</linearGradient>
<linearGradient id="paint7_linear_256_153" x1="20" y1="36" x2="20" y2="68" gradientUnits="userSpaceOnUse">
<stop offset="0.494792" stop-color="#A329FF"/>
<stop offset="1" stop-color="#E662FF"/>
</linearGradient>
<linearGradient id="paint8_linear_256_153" x1="20" y1="4" x2="20" y2="36" gradientUnits="userSpaceOnUse">
<stop offset="0.494792" stop-color="#A329FF"/>
<stop offset="1" stop-color="#E662FF"/>
</linearGradient>
<linearGradient id="paint9_linear_256_153" x1="52" y1="4" x2="52" y2="36" gradientUnits="userSpaceOnUse">
<stop offset="0.494792" stop-color="#A329FF"/>
<stop offset="1" stop-color="#E662FF"/>
</linearGradient>
</defs>
</svg>
