<svg width="66" height="94" viewBox="0 0 66 94" fill="none" xmlns="http://www.w3.org/2000/svg">
<g filter="url(#filter0_bii_231_194)">
<path d="M33 46.9998C33 43.1984 34.5101 39.5527 37.1981 36.8646C39.8862 34.1766 43.5319 32.6665 47.3333 32.6665C51.1348 32.6665 54.7805 34.1766 57.4685 36.8646C60.1566 39.5527 61.6667 43.1984 61.6667 46.9998C61.6667 50.8013 60.1566 54.447 57.4685 57.135C54.7805 59.8231 51.1348 61.3332 47.3333 61.3332C43.5319 61.3332 39.8862 59.8231 37.1981 57.135C34.5101 54.447 33 50.8013 33 46.9998Z" fill="white" fill-opacity="0.2"/>
</g>
<g filter="url(#filter1_bii_231_194)">
<path d="M4.33398 75.6668C4.33398 71.8654 5.8441 68.2197 8.53212 65.5316C11.2201 62.8436 14.8659 61.3335 18.6673 61.3335H33.0007V75.6668C33.0007 79.4683 31.4905 83.114 28.8025 85.802C26.1145 88.49 22.4688 90.0002 18.6673 90.0002C14.8659 90.0002 11.2201 88.49 8.53212 85.802C5.8441 83.114 4.33398 79.4683 4.33398 75.6668Z" fill="white" fill-opacity="0.2"/>
</g>
<g filter="url(#filter2_bii_231_194)">
<path d="M33 4V32.6667H47.3333C51.1348 32.6667 54.7805 31.1566 57.4685 28.4685C60.1566 25.7805 61.6667 22.1348 61.6667 18.3333C61.6667 14.5319 60.1566 10.8862 57.4685 8.19814C54.7805 5.51011 51.1348 4 47.3333 4L33 4Z" fill="white" fill-opacity="0.2"/>
</g>
<g filter="url(#filter3_bii_231_194)">
<path d="M4.33398 18.3333C4.33398 22.1348 5.8441 25.7805 8.53212 28.4685C11.2201 31.1566 14.8659 32.6667 18.6673 32.6667H33.0007V4H18.6673C14.8659 4 11.2201 5.51011 8.53212 8.19814C5.8441 10.8862 4.33398 14.5319 4.33398 18.3333Z" fill="white" fill-opacity="0.2"/>
</g>
<g filter="url(#filter4_bii_231_194)">
<path d="M4.33398 46.9998C4.33398 50.8013 5.8441 54.447 8.53212 57.135C11.2201 59.8231 14.8659 61.3332 18.6673 61.3332H33.0007V32.6665H18.6673C14.8659 32.6665 11.2201 34.1766 8.53212 36.8646C5.8441 39.5527 4.33398 43.1984 4.33398 46.9998Z" fill="white" fill-opacity="0.2"/>
</g>
<g filter="url(#filter5_f_231_194)">
<path d="M33 46.9998C33 43.1984 34.5101 39.5527 37.1981 36.8646C39.8862 34.1766 43.5319 32.6665 47.3333 32.6665C51.1348 32.6665 54.7805 34.1766 57.4685 36.8646C60.1566 39.5527 61.6667 43.1984 61.6667 46.9998C61.6667 50.8013 60.1566 54.447 57.4685 57.135C54.7805 59.8231 51.1348 61.3332 47.3333 61.3332C43.5319 61.3332 39.8862 59.8231 37.1981 57.135C34.5101 54.447 33 50.8013 33 46.9998V46.9998Z" stroke="white" stroke-width="4"/>
<path d="M4.33398 75.6668C4.33398 71.8654 5.8441 68.2197 8.53212 65.5316C11.2201 62.8436 14.8659 61.3335 18.6673 61.3335H33.0007V75.6668C33.0007 79.4683 31.4905 83.114 28.8025 85.802C26.1145 88.49 22.4688 90.0002 18.6673 90.0002C14.8659 90.0002 11.2201 88.49 8.53212 85.802C5.8441 83.114 4.33398 79.4683 4.33398 75.6668Z" stroke="white" stroke-width="4"/>
<path d="M4.33398 46.9998C4.33398 50.8013 5.8441 54.447 8.53212 57.135C11.2201 59.8231 14.8659 61.3332 18.6673 61.3332H33.0007V32.6665H18.6673C14.8659 32.6665 11.2201 34.1766 8.53212 36.8646C5.8441 39.5527 4.33398 43.1984 4.33398 46.9998Z" stroke="white" stroke-width="4"/>
<path d="M4.33398 18.3333C4.33398 22.1348 5.8441 25.7805 8.53212 28.4685C11.2201 31.1566 14.8659 32.6667 18.6673 32.6667H33.0007V4H18.6673C14.8659 4 11.2201 5.51011 8.53212 8.19814C5.8441 10.8862 4.33398 14.5319 4.33398 18.3333Z" stroke="white" stroke-width="4"/>
<path d="M33 4V32.6667H47.3333C51.1348 32.6667 54.7805 31.1566 57.4685 28.4685C60.1566 25.7805 61.6667 22.1348 61.6667 18.3333C61.6667 14.5319 60.1566 10.8862 57.4685 8.19814C54.7805 5.51011 51.1348 4 47.3333 4L33 4Z" stroke="white" stroke-width="4"/>
</g>
<path d="M33 46.9998C33 43.1984 34.5101 39.5527 37.1981 36.8646C39.8862 34.1766 43.5319 32.6665 47.3333 32.6665C51.1348 32.6665 54.7805 34.1766 57.4685 36.8646C60.1566 39.5527 61.6667 43.1984 61.6667 46.9998C61.6667 50.8013 60.1566 54.447 57.4685 57.135C54.7805 59.8231 51.1348 61.3332 47.3333 61.3332C43.5319 61.3332 39.8862 59.8231 37.1981 57.135C34.5101 54.447 33 50.8013 33 46.9998V46.9998Z" stroke="white" stroke-width="4"/>
<path d="M4.33398 75.6668C4.33398 71.8654 5.8441 68.2197 8.53212 65.5316C11.2201 62.8436 14.8659 61.3335 18.6673 61.3335H33.0007V75.6668C33.0007 79.4683 31.4905 83.114 28.8025 85.802C26.1145 88.49 22.4688 90.0002 18.6673 90.0002C14.8659 90.0002 11.2201 88.49 8.53212 85.802C5.8441 83.114 4.33398 79.4683 4.33398 75.6668Z" stroke="white" stroke-width="4"/>
<path d="M4.33398 46.9998C4.33398 50.8013 5.8441 54.447 8.53212 57.135C11.2201 59.8231 14.8659 61.3332 18.6673 61.3332H33.0007V32.6665H18.6673C14.8659 32.6665 11.2201 34.1766 8.53212 36.8646C5.8441 39.5527 4.33398 43.1984 4.33398 46.9998Z" stroke="white" stroke-width="4"/>
<path d="M4.33398 18.3333C4.33398 22.1348 5.8441 25.7805 8.53212 28.4685C11.2201 31.1566 14.8659 32.6667 18.6673 32.6667H33.0007V4H18.6673C14.8659 4 11.2201 5.51011 8.53212 8.19814C5.8441 10.8862 4.33398 14.5319 4.33398 18.3333Z" stroke="white" stroke-width="4"/>
<path d="M33 4V32.6667H47.3333C51.1348 32.6667 54.7805 31.1566 57.4685 28.4685C60.1566 25.7805 61.6667 22.1348 61.6667 18.3333C61.6667 14.5319 60.1566 10.8862 57.4685 8.19814C54.7805 5.51011 51.1348 4 47.3333 4L33 4Z" stroke="white" stroke-width="4"/>
<defs>
<filter id="filter0_bii_231_194" x="29" y="28.6665" width="36.666" height="36.6665" filterUnits="userSpaceOnUse" color-interpolation-filters="sRGB">
<feFlood flood-opacity="0" result="BackgroundImageFix"/>
<feGaussianBlur in="BackgroundImageFix" stdDeviation="2"/>
<feComposite in2="SourceAlpha" operator="in" result="effect1_backgroundBlur_231_194"/>
<feBlend mode="normal" in="SourceGraphic" in2="effect1_backgroundBlur_231_194" result="shape"/>
<feColorMatrix in="SourceAlpha" type="matrix" values="0 0 0 0 0 0 0 0 0 0 0 0 0 0 0 0 0 0 127 0" result="hardAlpha"/>
<feOffset dy="-4"/>
<feGaussianBlur stdDeviation="2"/>
<feComposite in2="hardAlpha" operator="arithmetic" k2="-1" k3="1"/>
<feColorMatrix type="matrix" values="0 0 0 0 1 0 0 0 0 1 0 0 0 0 1 0 0 0 0.05 0"/>
<feBlend mode="normal" in2="shape" result="effect2_innerShadow_231_194"/>
<feColorMatrix in="SourceAlpha" type="matrix" values="0 0 0 0 0 0 0 0 0 0 0 0 0 0 0 0 0 0 127 0" result="hardAlpha"/>
<feOffset dx="-4" dy="-4"/>
<feGaussianBlur stdDeviation="2"/>
<feComposite in2="hardAlpha" operator="arithmetic" k2="-1" k3="1"/>
<feColorMatrix type="matrix" values="0 0 0 0 1 0 0 0 0 1 0 0 0 0 1 0 0 0 0.05 0"/>
<feBlend mode="normal" in2="effect2_innerShadow_231_194" result="effect3_innerShadow_231_194"/>
</filter>
<filter id="filter1_bii_231_194" x="0.333984" y="57.3335" width="36.666" height="36.6665" filterUnits="userSpaceOnUse" color-interpolation-filters="sRGB">
<feFlood flood-opacity="0" result="BackgroundImageFix"/>
<feGaussianBlur in="BackgroundImageFix" stdDeviation="2"/>
<feComposite in2="SourceAlpha" operator="in" result="effect1_backgroundBlur_231_194"/>
<feBlend mode="normal" in="SourceGraphic" in2="effect1_backgroundBlur_231_194" result="shape"/>
<feColorMatrix in="SourceAlpha" type="matrix" values="0 0 0 0 0 0 0 0 0 0 0 0 0 0 0 0 0 0 127 0" result="hardAlpha"/>
<feOffset dy="-4"/>
<feGaussianBlur stdDeviation="2"/>
<feComposite in2="hardAlpha" operator="arithmetic" k2="-1" k3="1"/>
<feColorMatrix type="matrix" values="0 0 0 0 1 0 0 0 0 1 0 0 0 0 1 0 0 0 0.05 0"/>
<feBlend mode="normal" in2="shape" result="effect2_innerShadow_231_194"/>
<feColorMatrix in="SourceAlpha" type="matrix" values="0 0 0 0 0 0 0 0 0 0 0 0 0 0 0 0 0 0 127 0" result="hardAlpha"/>
<feOffset dx="-4" dy="-4"/>
<feGaussianBlur stdDeviation="2"/>
<feComposite in2="hardAlpha" operator="arithmetic" k2="-1" k3="1"/>
<feColorMatrix type="matrix" values="0 0 0 0 1 0 0 0 0 1 0 0 0 0 1 0 0 0 0.05 0"/>
<feBlend mode="normal" in2="effect2_innerShadow_231_194" result="effect3_innerShadow_231_194"/>
</filter>
<filter id="filter2_bii_231_194" x="29" y="0" width="36.666" height="36.6665" filterUnits="userSpaceOnUse" color-interpolation-filters="sRGB">
<feFlood flood-opacity="0" result="BackgroundImageFix"/>
<feGaussianBlur in="BackgroundImageFix" stdDeviation="2"/>
<feComposite in2="SourceAlpha" operator="in" result="effect1_backgroundBlur_231_194"/>
<feBlend mode="normal" in="SourceGraphic" in2="effect1_backgroundBlur_231_194" result="shape"/>
<feColorMatrix in="SourceAlpha" type="matrix" values="0 0 0 0 0 0 0 0 0 0 0 0 0 0 0 0 0 0 127 0" result="hardAlpha"/>
<feOffset dy="-4"/>
<feGaussianBlur stdDeviation="2"/>
<feComposite in2="hardAlpha" operator="arithmetic" k2="-1" k3="1"/>
<feColorMatrix type="matrix" values="0 0 0 0 1 0 0 0 0 1 0 0 0 0 1 0 0 0 0.05 0"/>
<feBlend mode="normal" in2="shape" result="effect2_innerShadow_231_194"/>
<feColorMatrix in="SourceAlpha" type="matrix" values="0 0 0 0 0 0 0 0 0 0 0 0 0 0 0 0 0 0 127 0" result="hardAlpha"/>
<feOffset dx="-4" dy="-4"/>
<feGaussianBlur stdDeviation="2"/>
<feComposite in2="hardAlpha" operator="arithmetic" k2="-1" k3="1"/>
<feColorMatrix type="matrix" values="0 0 0 0 1 0 0 0 0 1 0 0 0 0 1 0 0 0 0.05 0"/>
<feBlend mode="normal" in2="effect2_innerShadow_231_194" result="effect3_innerShadow_231_194"/>
</filter>
<filter id="filter3_bii_231_194" x="0.333984" y="0" width="36.666" height="36.6665" filterUnits="userSpaceOnUse" color-interpolation-filters="sRGB">
<feFlood flood-opacity="0" result="BackgroundImageFix"/>
<feGaussianBlur in="BackgroundImageFix" stdDeviation="2"/>
<feComposite in2="SourceAlpha" operator="in" result="effect1_backgroundBlur_231_194"/>
<feBlend mode="normal" in="SourceGraphic" in2="effect1_backgroundBlur_231_194" result="shape"/>
<feColorMatrix in="SourceAlpha" type="matrix" values="0 0 0 0 0 0 0 0 0 0 0 0 0 0 0 0 0 0 127 0" result="hardAlpha"/>
<feOffset dy="-4"/>
<feGaussianBlur stdDeviation="2"/>
<feComposite in2="hardAlpha" operator="arithmetic" k2="-1" k3="1"/>
<feColorMatrix type="matrix" values="0 0 0 0 1 0 0 0 0 1 0 0 0 0 1 0 0 0 0.05 0"/>
<feBlend mode="normal" in2="shape" result="effect2_innerShadow_231_194"/>
<feColorMatrix in="SourceAlpha" type="matrix" values="0 0 0 0 0 0 0 0 0 0 0 0 0 0 0 0 0 0 127 0" result="hardAlpha"/>
<feOffset dx="-4" dy="-4"/>
<feGaussianBlur stdDeviation="2"/>
<feComposite in2="hardAlpha" operator="arithmetic" k2="-1" k3="1"/>
<feColorMatrix type="matrix" values="0 0 0 0 1 0 0 0 0 1 0 0 0 0 1 0 0 0 0.05 0"/>
<feBlend mode="normal" in2="effect2_innerShadow_231_194" result="effect3_innerShadow_231_194"/>
</filter>
<filter id="filter4_bii_231_194" x="0.333984" y="28.6665" width="36.666" height="36.6665" filterUnits="userSpaceOnUse" color-interpolation-filters="sRGB">
<feFlood flood-opacity="0" result="BackgroundImageFix"/>
<feGaussianBlur in="BackgroundImageFix" stdDeviation="2"/>
<feComposite in2="SourceAlpha" operator="in" result="effect1_backgroundBlur_231_194"/>
<feBlend mode="normal" in="SourceGraphic" in2="effect1_backgroundBlur_231_194" result="shape"/>
<feColorMatrix in="SourceAlpha" type="matrix" values="0 0 0 0 0 0 0 0 0 0 0 0 0 0 0 0 0 0 127 0" result="hardAlpha"/>
<feOffset dy="-4"/>
<feGaussianBlur stdDeviation="2"/>
<feComposite in2="hardAlpha" operator="arithmetic" k2="-1" k3="1"/>
<feColorMatrix type="matrix" values="0 0 0 0 1 0 0 0 0 1 0 0 0 0 1 0 0 0 0.05 0"/>
<feBlend mode="normal" in2="shape" result="effect2_innerShadow_231_194"/>
<feColorMatrix in="SourceAlpha" type="matrix" values="0 0 0 0 0 0 0 0 0 0 0 0 0 0 0 0 0 0 127 0" result="hardAlpha"/>
<feOffset dx="-4" dy="-4"/>
<feGaussianBlur stdDeviation="2"/>
<feComposite in2="hardAlpha" operator="arithmetic" k2="-1" k3="1"/>
<feColorMatrix type="matrix" values="0 0 0 0 1 0 0 0 0 1 0 0 0 0 1 0 0 0 0.05 0"/>
<feBlend mode="normal" in2="effect2_innerShadow_231_194" result="effect3_innerShadow_231_194"/>
</filter>
<filter id="filter5_f_231_194" x="0.333984" y="0" width="65.332" height="94" filterUnits="userSpaceOnUse" color-interpolation-filters="sRGB">
<feFlood flood-opacity="0" result="BackgroundImageFix"/>
<feBlend mode="normal" in="SourceGraphic" in2="BackgroundImageFix" result="shape"/>
<feGaussianBlur stdDeviation="1" result="effect1_foregroundBlur_231_194"/>
</filter>
</defs>
</svg>
