<svg width="78" height="91" viewBox="0 0 78 91" fill="none" xmlns="http://www.w3.org/2000/svg">
<g filter="url(#filter0_bii_256_18)">
<path d="M39 3.5L3 24L2 67L39 88L75 66L76.5 25.5L39 3.5Z" fill="white" fill-opacity="0.2"/>
</g>
<path d="M78 23.1243C78 22.5367 77.7655 22.3016 77.1499 22.2135C76.2999 21.6846 75.4498 21.1851 74.5705 20.7149C73.8083 20.0979 72.8997 19.6572 72.0496 19.187C71.3168 18.6875 70.5254 18.2468 69.7339 17.8354C68.8252 17.2184 67.8579 16.6895 66.8906 16.19C66.4216 15.8374 65.894 15.5729 65.3957 15.2791C64.7802 14.9265 64.1939 14.5151 63.5197 14.2213C63.3732 14.045 63.168 13.9569 62.9628 13.8981V13.8687H62.9335C62.5524 13.6043 62.1421 13.3398 61.7024 13.1635C61.1454 12.7522 60.5299 12.3996 59.9143 12.1057C59.8557 11.9882 59.7091 11.9588 59.6212 11.9001C57.5986 10.7247 55.5761 9.54942 53.5536 8.3741C52.4983 7.75706 51.4431 7.1694 50.4171 6.58174C50.4171 6.55236 50.3878 6.55236 50.3878 6.55236C49.9188 6.22914 49.4498 5.93532 48.9515 5.72963C48.8929 5.6121 48.7757 5.58272 48.6877 5.52395C47.4566 4.81876 46.2548 4.11357 45.0237 3.40838C44.3202 2.99702 43.6167 2.55627 42.8839 2.20368C42.0338 1.6454 41.1545 1.14589 40.2458 0.675765H40.2165C39.894 0.411318 39.513 0.264404 39.1905 0.0587229C39.1026 -4.30411e-05 39.0147 -4.30411e-05 38.9267 0.0587229C38.575 0.264404 38.1939 0.440701 37.9008 0.675765H37.8715C37.7542 0.705148 37.637 0.763914 37.549 0.881446C36.7576 1.29281 35.9662 1.73355 35.2334 2.23306C35.0282 2.29183 34.8523 2.37998 34.7057 2.52689C34.2368 2.73257 33.8264 2.96764 33.416 3.29085C33.3867 3.29085 33.3867 3.29085 33.3867 3.32023C32.6832 3.67283 32.009 4.05481 31.3641 4.49555C31.2469 4.49555 31.159 4.55432 31.1003 4.64246C31.071 4.67185 31.0124 4.67185 30.9831 4.70123C30.3675 5.02444 29.752 5.34766 29.1657 5.75902C29.0485 5.81778 28.9019 5.87655 28.7847 5.93532C25.2379 7.96274 21.7497 9.99016 18.2322 12.0176C17.177 12.6346 16.1218 13.2517 15.0958 13.8687C15.0665 13.8687 15.0665 13.8687 15.0665 13.8981C14.9786 13.9275 14.8906 13.9569 14.832 14.0156C11.1387 16.1606 7.41601 18.3349 3.72266 20.4799C2.93123 20.95 2.11048 21.3614 1.34837 21.8903C1.11387 21.949 0.967305 22.1253 0.762119 22.1841C0.117249 22.4192 0 22.8305 0 23.4476C0.0293123 38.0509 0.0293123 52.6248 0 67.2282C0 67.4338 0.0586246 67.5808 0.234498 67.6689C1.17249 68.1978 2.08117 68.7267 2.98985 69.2556C3.07779 69.3144 3.16573 69.4319 3.28298 69.3437C3.42954 69.52 3.60541 69.6376 3.8106 69.7257C3.83991 69.7257 3.86922 69.7257 3.89853 69.7257C3.92785 69.7551 3.98647 69.7845 4.01578 69.8139C4.30891 70.0783 4.68997 70.284 5.04171 70.4309C5.42277 70.7247 5.86246 70.9892 6.33145 71.1655C6.41939 71.283 6.50733 71.3124 6.65389 71.3712L6.6832 71.4005C7.06426 71.665 7.47463 71.9294 7.91432 72.1057C8.88162 72.7228 9.87824 73.3104 10.9042 73.8393C10.9628 73.9569 11.08 73.9862 11.168 74.045C14.1871 75.808 17.2356 77.5416 20.2548 79.3046C21.0755 79.7747 21.867 80.3036 22.717 80.6856C22.805 80.8325 22.9515 80.8619 23.0688 80.95C25.0327 82.0959 26.9673 83.2125 28.9312 84.3291C29.6347 84.711 30.2796 85.1518 31.0124 85.5044C31.071 85.5925 31.159 85.6219 31.2469 85.6807C33.7091 87.091 36.1714 88.5308 38.6336 89.9412C38.9853 90.1469 39.2492 90.1469 39.513 89.853C40.1285 89.5592 40.7441 89.2066 41.301 88.7953C41.8579 88.5602 42.3856 88.237 42.8546 87.8844C43.0011 87.8844 43.1184 87.7669 43.2356 87.7081C44.5547 86.9441 45.903 86.1802 47.2221 85.4162C47.8377 85.0342 48.5118 84.711 49.0981 84.2997C49.186 84.2703 49.274 84.2409 49.3619 84.1821C50.5637 83.4769 51.7655 82.8011 52.9673 82.0959C53.7587 81.6258 54.5502 81.2438 55.283 80.715C56.0744 80.3036 56.8658 79.8628 57.5986 79.3633C58.2728 79.0401 58.9177 78.6581 59.5333 78.2468C60.3833 77.806 61.2041 77.3359 61.9955 76.807C62.1421 76.7776 62.2886 76.7189 62.3766 76.572C62.4645 76.5426 62.5817 76.4838 62.6697 76.425C64.0473 75.6317 65.425 74.8383 66.8027 74.0156C67.2717 73.7512 67.77 73.5161 68.2097 73.1635C68.8253 72.8697 69.4408 72.5171 69.9977 72.1057C70.4374 71.9294 70.8478 71.6944 71.2289 71.4005H71.2582C71.8151 71.1361 72.3427 70.8423 72.841 70.4603C72.929 70.4309 73.0169 70.4015 73.0755 70.3721C74.5998 69.4907 76.124 68.5798 77.6776 67.6983C77.8828 67.5808 77.9121 67.4045 77.9121 67.1988C78 52.4779 78 37.8158 78 23.1243ZM53.9346 76.1606C49.0981 78.9814 44.2616 81.7727 39.425 84.5935C39.1319 84.7698 38.956 84.711 38.6922 84.5641C33.2108 81.3614 27.7001 78.188 22.1894 75.0146C16.4735 71.6944 10.7576 68.4035 5.04171 65.1126C4.7779 64.9657 4.68997 64.7894 4.68997 64.4956C4.68997 51.4789 4.68997 38.4916 4.68997 25.475C4.68997 25.2105 4.7779 25.0636 5.0124 24.9167C10.7283 21.5964 16.4442 18.3055 22.1308 14.9853C27.5536 11.8413 32.9763 8.69731 38.3991 5.52395C38.8388 5.28889 39.1319 5.25951 39.5716 5.52395C45.7272 9.07929 51.8534 12.6346 58.009 16.19C63.0214 19.0989 68.0338 22.0078 73.0755 24.9167C73.31 25.0636 73.3393 25.2399 73.3393 25.475C73.3393 31.9686 73.3393 38.4916 73.3393 44.9853C73.3393 51.4495 73.3393 57.8844 73.3393 64.3486C73.3393 64.7306 73.2221 64.9363 72.8997 65.142C66.5682 68.8148 60.2368 72.4877 53.9346 76.1606Z" fill="white"/>
<path d="M53.0544 18.3055C48.4523 15.6023 43.8503 12.899 39.2776 10.1958C39.0724 10.0783 38.9258 10.0783 38.75 10.1958C35.2325 12.3114 31.6857 14.427 28.1389 16.5425C27.7872 16.7482 27.6699 16.9539 27.6699 17.3653C27.6699 26.5915 27.6699 35.7884 27.6699 45.0146C27.6699 54.2703 27.6699 63.5259 27.6699 72.7815C27.6699 73.1047 27.7579 73.3104 28.051 73.5161C29.37 74.3682 30.6598 75.2203 31.9495 76.1018C32.0375 76.1606 32.1254 76.3369 32.272 76.2487C32.3892 76.1899 32.3306 76.0136 32.3306 75.8961C32.3306 66.7286 32.3306 57.5318 32.3306 48.3643C32.3306 47.8942 32.3306 47.8942 32.8289 47.8942C38.281 47.8942 43.7331 47.8942 49.1851 47.8942C49.5076 47.8942 49.5955 47.806 49.5955 47.4828C49.5662 45.8373 49.5662 44.1919 49.5955 42.5758C49.5955 42.2232 49.4783 42.1351 49.1265 42.1351C43.6744 42.1351 38.2517 42.1351 32.7996 42.1351C32.3306 42.1351 32.3306 42.1351 32.3306 41.6356C32.3306 36.4642 32.3306 31.2928 32.3306 26.1508C32.3306 24.094 32.3306 22.0371 32.3306 20.0097C32.3306 19.8334 32.3013 19.7159 32.5064 19.5984C34.5583 18.4524 36.6102 17.2771 38.662 16.1018C38.9258 15.9549 39.1017 15.9549 39.3362 16.1018C43.0002 18.2467 46.6643 20.3623 50.3283 22.5073C50.5042 22.6248 50.6508 22.713 50.8266 22.4485C51.5887 21.2144 52.3802 19.9803 53.2009 18.7463C53.3475 18.4818 53.2596 18.3937 53.0544 18.3055Z" fill="white"/>
<path d="M23.5093 37.7864C23.5093 32.0274 23.5093 26.2683 23.5093 20.5386C23.5093 20.0685 23.5094 20.0685 23.099 20.3036C21.692 21.0675 20.285 21.8609 18.878 22.6248C18.6435 22.7424 18.5556 22.8893 18.5556 23.1831C18.5556 27.0617 18.5263 30.9402 18.5263 34.8188C18.5263 38.2859 18.5263 41.7531 18.5263 45.2203C18.5263 45.3379 18.4969 45.4554 18.4969 45.5729C18.2918 45.2203 18.1745 44.8971 18.0866 44.5445C16.3572 38.8736 14.5691 33.2027 12.8983 27.5024C12.8397 27.2673 12.7517 27.238 12.5466 27.3555C11.4034 28.0313 10.2309 28.6777 9.05839 29.3241C8.76527 29.4711 8.70665 29.6474 8.70665 29.9706C8.70665 37.757 8.70665 45.5435 8.70665 53.3594C8.70665 56.3271 8.70665 59.2948 8.70665 62.2624C8.70665 62.4094 8.64802 62.5857 8.82389 62.7032C10.0843 63.4378 11.3448 64.1723 12.6052 64.8775C12.7517 64.9657 12.8104 64.9363 12.8104 64.76C12.8104 64.6718 12.8104 64.5837 12.8104 64.4955C12.8104 57.3555 12.8104 50.2448 12.8104 43.1047C12.8104 42.9578 12.7811 42.8403 12.8983 42.6052C12.9862 42.8697 13.0449 43.0754 13.1035 43.281C13.6311 45.2203 14.1294 47.1596 14.657 49.1283C16.0933 54.4172 17.4417 59.7061 18.9073 64.9951C19.2298 66.1116 19.5229 67.2282 19.7574 68.3741C19.8746 68.9618 20.1677 69.3437 20.6954 69.6082C21.4575 69.9902 22.2196 70.4603 22.9524 70.8716C23.099 70.9598 23.2749 71.1949 23.4214 71.0773C23.568 70.9892 23.48 70.7247 23.48 70.5484C23.5093 59.5592 23.5093 48.6875 23.5093 37.7864Z" fill="white"/>
<path d="M70.2917 29.4417C70.2624 29.4417 70.2331 29.4123 70.2038 29.4123C69.9693 29.236 69.7348 29.0597 69.471 28.9422C69.4417 28.8834 69.383 28.854 69.3244 28.854C69.2658 28.7659 69.2072 28.7071 69.0899 28.7071C69.002 28.5896 68.8554 28.5014 68.7088 28.4721C68.5916 28.3251 68.445 28.237 68.2399 28.1782C68.1519 28.0607 68.0054 28.0019 67.8588 27.9432C67.8002 27.855 67.7415 27.7963 67.6243 27.7963C67.5364 27.6787 67.4484 27.62 67.3019 27.5906C67.3019 27.5612 67.2725 27.5612 67.2725 27.5612C67.2139 27.473 67.126 27.4143 67.038 27.4143C67.0087 27.3261 66.9501 27.2967 66.8622 27.2967C66.8622 27.2674 66.8329 27.2674 66.8035 27.2674C66.7156 27.1498 66.5984 27.0911 66.4811 27.0617C66.3052 26.8854 66.0707 26.7385 65.8362 26.6503C65.7776 26.5622 65.719 26.5034 65.6017 26.5034C65.5138 26.3859 65.4259 26.3271 65.2793 26.2977C65.2207 26.2096 65.1621 26.1802 65.0448 26.1508C64.8689 25.9745 64.6638 25.857 64.4586 25.7688C64.1948 25.5925 63.9896 25.3281 63.6378 25.3281C63.4913 25.2399 63.374 25.1224 63.2275 25.0343C62.6412 24.711 62.1136 24.2997 61.5567 23.9177C60.9704 23.5357 60.4135 23.1244 59.7686 22.8305C59.6514 22.6542 59.4169 22.5661 59.241 22.4486C59.1237 22.331 58.9479 22.2135 58.772 22.1547C58.3909 21.8609 58.0099 21.6258 57.5702 21.3908C57.5409 21.332 57.4822 21.3026 57.4236 21.3026C56.8667 20.8913 56.3098 20.5387 55.6942 20.2154C55.489 20.0098 55.4304 20.1861 55.3718 20.333C55.2252 20.4799 55.1079 20.6856 55.02 20.8619C54.4045 21.7727 53.8182 22.6542 53.2027 23.5651C53.0268 23.8296 53.0268 23.9471 53.2906 24.1234C55.0786 25.2693 56.8667 26.474 58.6547 27.62C59.0358 27.855 59.153 28.1195 59.153 28.5602C59.153 41.9882 59.153 55.3868 59.153 68.8149C59.153 69.285 59.153 69.285 59.5341 69.0793C60.9997 68.2566 62.4653 67.4339 63.9603 66.6405C64.2241 66.4936 64.2827 66.3467 64.2827 66.0529C64.2827 54.5935 64.2827 43.1048 64.2827 31.6454C64.2827 31.4691 64.2827 31.2928 64.2827 31.1165C64.2827 30.9108 64.3413 30.8521 64.5172 30.9696C64.7224 31.1165 64.9276 31.2928 65.1914 31.381C65.5431 31.7042 65.9242 31.9392 66.3346 32.1743C66.4518 32.3212 66.5984 32.4094 66.7742 32.4681C67.0087 32.7032 67.2726 32.8795 67.595 33.0264C67.6243 33.0558 67.6536 33.0852 67.6829 33.0852C67.7709 33.2027 67.8588 33.2615 68.0054 33.2909C68.0347 33.3496 68.0933 33.379 68.1519 33.4084C68.1812 33.4378 68.2105 33.4378 68.2692 33.4672C68.3571 33.5847 68.445 33.6728 68.5916 33.7022C68.8554 33.9667 69.1485 34.143 69.5003 34.3193C69.5296 34.3487 69.5589 34.378 69.5882 34.378C69.6175 34.4368 69.6762 34.4662 69.7348 34.4662C69.7934 34.5543 69.852 34.6131 69.9693 34.6131C69.9986 34.6425 70.0279 34.6719 70.0572 34.6719C70.0865 34.7012 70.1158 34.7012 70.1452 34.7306C70.2917 34.8775 70.4383 34.9951 70.6728 35.0832C70.6728 34.9951 70.7021 34.9657 70.7021 34.9069C70.7021 33.2615 70.7021 31.616 70.7021 29.9412C70.7021 29.6474 70.5262 29.5298 70.2917 29.4417Z" fill="white"/>
<defs>
<filter id="filter0_bii_256_18" x="-2" y="-0.5" width="82.5" height="92.5" filterUnits="userSpaceOnUse" color-interpolation-filters="sRGB">
<feFlood flood-opacity="0" result="BackgroundImageFix"/>
<feGaussianBlur in="BackgroundImageFix" stdDeviation="2"/>
<feComposite in2="SourceAlpha" operator="in" result="effect1_backgroundBlur_256_18"/>
<feBlend mode="normal" in="SourceGraphic" in2="effect1_backgroundBlur_256_18" result="shape"/>
<feColorMatrix in="SourceAlpha" type="matrix" values="0 0 0 0 0 0 0 0 0 0 0 0 0 0 0 0 0 0 127 0" result="hardAlpha"/>
<feOffset dy="-4"/>
<feGaussianBlur stdDeviation="2"/>
<feComposite in2="hardAlpha" operator="arithmetic" k2="-1" k3="1"/>
<feColorMatrix type="matrix" values="0 0 0 0 1 0 0 0 0 1 0 0 0 0 1 0 0 0 0.05 0"/>
<feBlend mode="normal" in2="shape" result="effect2_innerShadow_256_18"/>
<feColorMatrix in="SourceAlpha" type="matrix" values="0 0 0 0 0 0 0 0 0 0 0 0 0 0 0 0 0 0 127 0" result="hardAlpha"/>
<feOffset dx="-4" dy="-4"/>
<feGaussianBlur stdDeviation="2"/>
<feComposite in2="hardAlpha" operator="arithmetic" k2="-1" k3="1"/>
<feColorMatrix type="matrix" values="0 0 0 0 1 0 0 0 0 1 0 0 0 0 1 0 0 0 0.05 0"/>
<feBlend mode="normal" in2="effect2_innerShadow_256_18" result="effect3_innerShadow_256_18"/>
</filter>
</defs>
</svg>
